<?xml version="1.0" encoding="utf-8"?>
<!-- Generator: Adobe Illustrator 24.0.1, SVG Export Plug-In . SVG Version: 6.00 Build 0)  -->
<svg version="1.1" id="Layer_1" xmlns="http://www.w3.org/2000/svg" xmlns:xlink="http://www.w3.org/1999/xlink" x="0px" y="0px"
	 viewBox="0 0 300 85.45" style="enable-background:new 0 0 300 85.45;" xml:space="preserve">
<style type="text/css">
	.st0{fill:#EF4959;}
	.st1{fill:#003045;}
</style>
<g>
	<path class="st0" d="M49.88,44.21c0,3.18-0.05,6.36,0.02,9.53c0.03,1.27-0.37,2.09-1.5,2.71c-5.46,3-10.88,6.07-16.35,9.07
		c-1.69,0.93-3.33,0.54-4.01-0.8c-0.71-1.38-0.2-2.79,1.54-3.78c4.19-2.38,8.43-4.68,12.65-7.02c0.41-0.23,0.84-0.42,1.24-0.67
		c1.07-0.67,1.34-1.69,0.81-2.75c-0.58-1.14-1.63-1.28-2.72-0.7c-1.71,0.91-3.4,1.87-5.1,2.81c-4.16,2.31-8.32,4.64-12.49,6.94
		c-0.61,0.34-1.25,0.67-1.92,0.86c-1.23,0.34-2.22-0.09-2.78-1.26c-0.54-1.12-0.19-2.07,0.74-2.81c0.41-0.33,0.89-0.58,1.35-0.83
		c7.3-4.06,14.6-8.11,21.89-12.16c0.21-0.11,0.42-0.22,0.62-0.33c1.21-0.63,1.86-1.57,1.17-2.87c-0.7-1.32-1.83-1.24-3.03-0.58
		c-2.78,1.54-5.58,3.04-8.35,4.58c-6.06,3.37-12.12,6.76-18.18,10.13c-0.61,0.34-1.26,0.67-1.93,0.85c-1.55,0.42-2.95-0.5-2.96-2.11
		c-0.06-6.94-0.06-13.89,0.03-20.83c0.01-0.6,0.62-1.43,1.18-1.75c5.62-3.21,11.27-6.35,16.94-9.46c1.39-0.76,2.82-0.34,3.57,0.85
		c0.76,1.21,0.42,2.77-1.04,3.62c-4.02,2.33-8.09,4.55-12.15,6.82c-0.36,0.2-0.74,0.37-1.08,0.6c-0.96,0.64-1.32,1.55-0.78,2.59
		c0.58,1.13,1.61,1.37,2.71,0.81c1.68-0.85,3.31-1.79,4.96-2.7c4.01-2.22,8.02-4.46,12.02-6.69c0.31-0.17,0.6-0.38,0.93-0.5
		c1.3-0.44,2.48-0.32,3.21,1c0.73,1.33,0.27,2.44-0.95,3.15c-2.69,1.58-5.41,3.09-8.13,4.61c-4.73,2.63-9.46,5.25-14.2,7.86
		c-1.22,0.67-2.09,1.53-1.24,2.95c0.82,1.37,1.98,1.1,3.21,0.42c8.37-4.66,16.76-9.29,25.15-13.93c0.51-0.28,1.02-0.61,1.57-0.8
		c1.87-0.64,3.34,0.35,3.36,2.34C49.91,37.38,49.88,40.8,49.88,44.21z"/>
	<path class="st1" d="M145.66,53.86c-6.11,4.55-13.27,2.3-16.31-1.19c-3.81-4.38-4-11.98-0.38-16.73c2.02-2.65,4.73-3.99,7.96-4.36
		c3.2-0.37,5.98,0.78,8.69,2.96c-0.25-2.56,1.13-2.7,2.85-2.68c4.12,0.06,3.69-0.12,3.69,3.77c0.01,6.3,0.04,12.59-0.03,18.89
		c-0.02,1.57-0.14,3.2-0.56,4.71c-1.12,4.05-3.67,6.75-7.9,7.69c-4.44,0.98-8.76,0.59-12.98-1.08c-1.26-0.5-1.71-1.17-1.29-2.57
		c1-3.31,0.64-3.94,4.36-2.48c1.75,0.68,3.8,0.88,5.7,0.82C144.18,61.47,146.3,58.75,145.66,53.86z M133.18,43.8
		c-0.12,3.83,2.39,6.55,6.16,6.68c3.59,0.13,6.52-2.69,6.6-6.35c0.08-3.57-2.55-6.46-5.97-6.57C135.97,37.44,133.3,39.9,133.18,43.8
		z"/>
	<path class="st1" d="M115.47,54.07c-2.12,2-4.49,3.15-7.41,3.16c-6.53,0.03-10.91-3.59-12.01-10.04c-1.01-5.96,1.25-11.5,5.77-14.1
		c4.19-2.42,8.88-2.03,12.63,1.05c0.18,0.14,0.38,0.25,0.89,0.59c0-1.08,0-1.92,0-2.76c0-3.59,0.04-7.17-0.02-10.76
		c-0.02-1.36,0.43-1.91,1.83-1.88c5.72,0.12,4.78-0.72,4.8,4.69c0.05,10.11,0.02,20.23,0.01,30.34c0,2.43-0.08,2.51-2.45,2.52
		c-0.24,0-0.47,0-0.71,0C115.95,56.87,115.95,56.87,115.47,54.07z M102.54,44.36c0.01,4.22,2.58,6.98,6.47,6.97
		c3.88-0.01,6.75-2.94,6.7-6.85c-0.05-4.02-3.03-7.14-6.77-7.08C105.22,37.46,102.53,40.39,102.54,44.36z"/>
	<path class="st1" d="M193.64,47.09c1.24-4.32,2.37-8.26,3.49-12.21c0.82-2.9,2.67-3.94,5.47-2.86c0.56,0.22,1.05,1.07,1.25,1.73
		c1.15,3.77,2.2,7.56,3.29,11.34c0.15,0.53,0.36,1.05,0.9,1.58c0.65-1.98,1.32-3.95,1.96-5.93c0.73-2.3,1.48-4.59,2.14-6.91
		c0.39-1.39,1.11-1.99,2.63-1.98c4.85,0.04,4.79-0.12,3.18,4.48c-2.15,6.16-4.27,12.33-6.31,18.53c-0.47,1.43-1.12,2.1-2.73,2.04
		c-4.32-0.16-3.48,0.49-4.68-3.56c-1.13-3.82-2.23-7.65-3.69-11.51c-0.23,0.72-0.48,1.43-0.69,2.16c-1.07,3.73-2.17,7.45-3.18,11.19
		c-0.33,1.23-0.93,1.7-2.22,1.7c-3.89,0-3.92,0.07-5.17-3.54c-2.18-6.27-4.32-12.56-6.46-18.85c-0.74-2.17-0.41-2.62,1.91-2.61
		c4.28,0.03,3.64-0.59,5.03,3.69c1.09,3.35,2.14,6.72,3.23,10.08C193.08,46.03,193.29,46.37,193.64,47.09z"/>
	<path class="st1" d="M75.14,46.54c0.69,4.42,6.48,6.3,10.67,3.65c0.64-0.41,1.73-1.06,2.07-0.82c1.23,0.86,2.28,1.99,3.24,3.15
		c0.14,0.17-0.41,1.14-0.83,1.54c-3.55,3.42-10.45,4.24-15.41,1.81c-4.98-2.44-6.89-6.78-6.76-12.01c0.12-5.17,2.42-9.22,7.36-11.27
		c4.81-1.99,9.39-1.38,13.34,2.11c3.14,2.78,4.04,6.51,3.87,10.56c-0.05,1.23-0.98,1.29-1.91,1.28c-4.65,0-9.3,0-13.95,0
		C76.3,46.54,75.77,46.54,75.14,46.54z M75.18,41.68c3.65,0,7.17,0,10.74,0c-0.74-2.9-2.43-4.28-5.12-4.31
		C77.9,37.33,75.94,38.77,75.18,41.68z"/>
	<path class="st1" d="M163.61,46.54c1.08,4.56,6.54,6.3,10.64,3.67c0.65-0.41,1.73-1.1,2.06-0.87c1.22,0.85,2.27,1.99,3.24,3.14
		c0.15,0.18-0.27,1.13-0.66,1.44c-4.32,3.54-9.22,4.29-14.39,2.45c-5.01-1.79-7.52-5.69-7.84-10.9
		c-0.47-7.68,3.79-12.97,10.98-13.87c7.69-0.97,14.44,5.75,13.55,13.45c-0.14,1.25-0.85,1.51-1.93,1.5
		c-4.53-0.02-9.06-0.01-13.59-0.01C165.04,46.54,164.4,46.54,163.61,46.54z M174.36,41.7c-0.58-2.94-2.48-4.41-5.4-4.34
		c-2.81,0.07-4.84,1.72-5.19,4.34C167.26,41.7,170.74,41.7,174.36,41.7z"/>
	<path class="st1" d="M233.2,57.27c-7.91-0.04-13.19-5.34-13.13-13.19c0.05-7.27,5.71-12.61,13.29-12.57
		c7.87,0.04,13.32,5.47,13.24,13.18C246.52,52.15,241.02,57.31,233.2,57.27z M233.15,51.33c3.85,0.04,6.79-2.91,6.79-6.79
		c0-4.11-2.84-7.15-6.66-7.14c-3.65,0.01-6.5,2.9-6.55,6.66C226.67,48.34,229.28,51.29,233.15,51.33z"/>
	<path class="st1" d="M278.43,49.64c-1.49,2.12-2.81,3.92-4.03,5.78c-0.72,1.09-1.56,1.64-2.91,1.48c-0.93-0.11-1.88,0.01-2.82-0.03
		c-1.64-0.07-2-0.81-1.02-2.3c1.91-2.89,3.83-5.79,5.87-8.59c0.94-1.3,0.97-2.31-0.02-3.61c-1.95-2.58-3.77-5.25-5.57-7.94
		c-0.35-0.52-0.7-1.45-0.46-1.85c0.25-0.43,1.17-0.55,1.82-0.67c3.17-0.61,5.4,0.47,6.71,3.54c0.53,1.26,1.5,2.33,2.44,3.75
		c1.36-2.06,2.6-3.82,3.71-5.67c0.71-1.19,1.54-1.84,2.98-1.66c0.81,0.1,1.65-0.06,2.46,0.04c0.65,0.09,1.56,0.22,1.83,0.66
		c0.23,0.38-0.12,1.31-0.47,1.83c-1.86,2.79-3.75,5.56-5.75,8.25c-0.81,1.1-0.76,1.87,0.01,2.96c2.05,2.87,3.99,5.82,5.91,8.77
		c0.35,0.53,0.6,1.33,0.46,1.89c-0.08,0.32-1.05,0.47-1.65,0.58c-3.1,0.55-5.42-0.37-6.82-3.41
		C280.53,52.16,279.47,51.07,278.43,49.64z"/>
	<path class="st1" d="M257.03,35.3c2.01-2.33,4.4-3.77,7.76-3.76c0,2.05,0.08,4.09-0.07,6.1c-0.03,0.4-0.95,0.99-1.51,1.06
		c-4.66,0.59-6.49,2.59-6.5,7.29c0,3-0.03,6,0.01,9c0.01,1.34-0.54,1.91-1.9,1.89c-5.34-0.08-4.77,0.62-4.78-4.64
		c-0.02-6-0.01-12,0-18c0-2.11,0.24-2.33,2.32-2.35c0.06,0,0.12,0,0.18,0C256.17,31.87,256.17,31.87,257.03,35.3z"/>
</g>
</svg>
