<?xml version="1.0" encoding="utf-8"?>
<!-- Generator: Adobe Illustrator 24.0.1, SVG Export Plug-In . SVG Version: 6.00 Build 0)  -->
<svg version="1.1" id="logo" xmlns="http://www.w3.org/2000/svg" xmlns:xlink="http://www.w3.org/1999/xlink" x="0px" y="0px"
	 viewBox="0 0 218.03 57" style="enable-background:new 0 0 218.03 57;" xml:space="preserve">
<style type="text/css">
	.st0{fill:#0091D0;}
</style>
<g>
	<g>
		<path class="st0" d="M69.24,19.9h-10.4v5.9h8.62v4.18h-8.62v6.21h11v4.18H53.9V15.71h15.34V19.9z"/>
		<path class="st0" d="M89.53,15.71v17.05c0,5.07-3.49,7.99-8.69,7.99c-5.2,0-8.69-2.92-8.69-7.99V15.71h4.95v15.47
			c0,4.12,1.24,5.39,3.74,5.39c2.5,0,3.74-1.27,3.74-5.39V15.71H89.53z"/>
		<path class="st0" d="M103.16,15.71c5.68,0,7.89,4.06,7.89,7.2c0,2.69-1.68,5.2-4.18,6.21l4.91,11.25h-5.2l-4.44-10.24h-3.77v10.24
			h-4.95V15.71H103.16z M100.53,25.95c2.16,0,5.45,0.13,5.45-2.95c0-3.39-3.33-3.11-5.77-3.11h-1.84v6.06H100.53z"/>
		<path class="st0" d="M132.93,28.05c0,6.21-3.14,12.71-10.18,12.71c-7.04,0-10.18-6.5-10.18-12.71c0-6.21,3.14-12.71,10.18-12.71
			C129.79,15.33,132.93,21.83,132.93,28.05z M117.65,28.05c0,3.17,0.86,8.81,5.1,8.81c4.25,0,5.1-5.64,5.1-8.81
			c0-3.17-0.86-8.81-5.1-8.81C118.5,19.23,117.65,24.88,117.65,28.05z"/>
		<path class="st0" d="M150.23,19.9h-6.4v20.48h-4.95V19.9h-6.4v-4.18h17.75V19.9z"/>
		<path class="st0" d="M168.14,19.9h-10.4v5.9h8.62v4.18h-8.62v6.21h11v4.18H152.8V15.71h15.34V19.9z"/>
		<path class="st0" d="M188.91,32.61c-0.76,5.07-4.15,8.15-9.29,8.15c-7.04,0-10.18-6.5-10.18-12.71c0-6.21,3.14-12.71,10.18-12.71
			c5.07,0,8.46,2.92,9.29,8.15l-4.69,0.63c-0.47-2.57-1.62-4.88-4.6-4.88c-4.25,0-5.1,5.64-5.1,8.81c0,3.17,0.86,8.81,5.1,8.81
			c2.95,0,4.12-2.31,4.6-4.85L188.91,32.61z"/>
		<path class="st0" d="M204.94,25.35v-9.64h4.95v24.66h-4.95V29.54h-8.15v10.84h-4.95V15.71h4.95v9.64H204.94z"/>
	</g>
	<g>
		<g>
			<g>
				<g>
					<polygon class="st0" points="22.26,20.23 22.26,21.66 27.62,21.66 28.97,23.05 34.17,23.05 34.17,18.82 28.97,18.82 
						27.62,20.23 					"/>
				</g>
				<g>
					<polygon class="st0" points="22.26,33.89 22.26,35.32 27.62,35.32 28.97,36.71 34.17,36.71 34.17,32.48 28.97,32.48 
						27.62,33.89 					"/>
				</g>
				<g>
					<polygon class="st0" points="22.26,27.07 22.26,28.51 27.62,28.51 28.97,29.89 34.17,29.89 34.17,25.67 28.97,25.67 
						27.62,27.07 					"/>
				</g>
			</g>
		</g>
		<g>
			<path class="st0" d="M44.44,27.78c0,8.89-7.23,16.11-16.11,16.11c-8.89,0-16.12-7.23-16.12-16.11c0-8.89,7.23-16.12,16.12-16.12
				C37.21,11.67,44.44,18.9,44.44,27.78z M28.33,10.23c-9.68,0-17.56,7.88-17.56,17.56c0,9.68,7.88,17.56,17.56,17.56
				c9.68,0,17.55-7.88,17.55-17.56C45.88,18.1,38.01,10.23,28.33,10.23z"/>
		</g>
	</g>
</g>
</svg>
