<?xml version="1.0" encoding="utf-8"?>
<!-- Generator: Adobe Illustrator 24.0.1, SVG Export Plug-In . SVG Version: 6.00 Build 0)  -->
<svg version="1.1" id="Õ_xBA__x2264__x201E__x5F_1"
	 xmlns="http://www.w3.org/2000/svg" xmlns:xlink="http://www.w3.org/1999/xlink" x="0px" y="0px" viewBox="0 0 1700.79 566.93"
	 style="enable-background:new 0 0 1700.79 566.93;" xml:space="preserve">
<style type="text/css">
	.st0{fill:url(#SVGID_1_);}
	.st1{fill:url(#SVGID_2_);}
	.st2{fill:url(#SVGID_3_);}
	.st3{fill:url(#SVGID_4_);}
	.st4{fill:url(#SVGID_5_);}
	.st5{fill:url(#SVGID_6_);}
	.st6{fill:url(#SVGID_7_);}
	.st7{fill:url(#SVGID_8_);}
</style>
<g>
	<path d="M696.22,300.31h77.07v-61.59h34.62v152h-34.62v-63.51h-77.07v63.51h-34.64v-152h34.64V300.31z"/>
	<path d="M870.7,329.76c0,26.89,8.5,38.08,37.14,38.08c28.63,0,36.9-11.19,36.9-38.08v-91.04h34.63v91.87
		c0,19.48-2.32,32.81-9.64,40.85c-13.54,14.84-33.25,20.97-61.89,20.97c-28.64,0-48.58-6.13-62.11-20.97
		c-7.57-8.21-9.41-21.59-9.41-40.85v-91.87h34.39V329.76z"/>
	<path d="M1092.46,238.72l70.13,152h-38.5l-15.14-36.2h-71.52l-14.66,36.2H986.1l69.66-152H1092.46z M1048.67,327.43h49.08
		l-24.97-58.42L1048.67,327.43z"/>
	<path d="M1178.31,238.72l38.05,116.86l32.08-116.86h40.81l36.9,116.86l35.5-116.86h35.55l-50.88,152h-42.41l-35.08-113.45
		l-30.69,113.45h-42.18l-54.8-152H1178.31z"/>
	<path d="M1443.8,300.52h95.8v26.46h-96c0.21,27.34,11.9,37.27,39.17,37.27h56.84v26.47h-58.44c-19.94,0-35.3-1.5-51.34-13.35
		c-16.96-12.47-25.2-32.38-25.2-59.91c0-53.73,24.53-78.75,77.47-78.75h57.52v26.48h-56.84
		C1457.77,265.19,1445.18,276.62,1443.8,300.52z"/>
	<path d="M1570.1,390.72v-152h36.19v152H1570.1z"/>
</g>
<g>
	<g>
		<g>
			
				<radialGradient id="SVGID_1_" cx="385.8427" cy="136.3389" r="345.6604" gradientTransform="matrix(0.9856 0 0 0.9856 12.0728 3.909)" gradientUnits="userSpaceOnUse">
				<stop  offset="0" style="stop-color:#FFCC99"/>
				<stop  offset="0.0784" style="stop-color:#FFA67D"/>
				<stop  offset="0.427" style="stop-color:#FF0000"/>
				<stop  offset="0.6654" style="stop-color:#FD0000"/>
				<stop  offset="0.7611" style="stop-color:#F60000"/>
				<stop  offset="0.8312" style="stop-color:#EA0000"/>
				<stop  offset="0.8888" style="stop-color:#D80000"/>
				<stop  offset="0.9386" style="stop-color:#C20000"/>
				<stop  offset="0.9825" style="stop-color:#A60000"/>
				<stop  offset="1" style="stop-color:#990000"/>
			</radialGradient>
			<path class="st0" d="M297.96,372.22c0,0,0.85-0.66,0.4-1.76h0.02c-55.5-121.23-131.42-213.15-131.42-213.15
				s-41.3,39.2-38.36,78.47c1.57,29.71,23.93,47.31,23.93,47.31c36.02,35.1,123.23,79.41,143.5,89.47
				C296.3,372.66,297.35,373,297.96,372.22z"/>
			
				<radialGradient id="SVGID_2_" cx="385.8401" cy="136.2734" r="345.7146" gradientTransform="matrix(0.9856 0 0 0.9856 12.0728 3.909)" gradientUnits="userSpaceOnUse">
				<stop  offset="0" style="stop-color:#FFCC99"/>
				<stop  offset="0.0784" style="stop-color:#FFA67D"/>
				<stop  offset="0.427" style="stop-color:#FF0000"/>
				<stop  offset="0.6654" style="stop-color:#FD0000"/>
				<stop  offset="0.7611" style="stop-color:#F60000"/>
				<stop  offset="0.8312" style="stop-color:#EA0000"/>
				<stop  offset="0.8888" style="stop-color:#D80000"/>
				<stop  offset="0.9386" style="stop-color:#C20000"/>
				<stop  offset="0.9825" style="stop-color:#A60000"/>
				<stop  offset="1" style="stop-color:#990000"/>
			</radialGradient>
			<path class="st1" d="M284.47,402.24c-0.36-1.3-1.87-1.3-1.87-1.3v-0.05l-145.18,5.07c15.74,28.07,42.26,49.88,69.88,43.18
				c19.06-4.76,62.24-34.88,76.49-45.06l-0.04-0.03C284.86,403.05,284.47,402.24,284.47,402.24z"/>
			
				<radialGradient id="SVGID_3_" cx="385.8394" cy="136.3483" r="345.6365" gradientTransform="matrix(0.9856 0 0 0.9856 12.0728 3.909)" gradientUnits="userSpaceOnUse">
				<stop  offset="0" style="stop-color:#FFCC99"/>
				<stop  offset="0.0784" style="stop-color:#FFA67D"/>
				<stop  offset="0.427" style="stop-color:#FF0000"/>
				<stop  offset="0.6654" style="stop-color:#FD0000"/>
				<stop  offset="0.7611" style="stop-color:#F60000"/>
				<stop  offset="0.8312" style="stop-color:#EA0000"/>
				<stop  offset="0.8888" style="stop-color:#D80000"/>
				<stop  offset="0.9386" style="stop-color:#C20000"/>
				<stop  offset="0.9825" style="stop-color:#A60000"/>
				<stop  offset="1" style="stop-color:#990000"/>
			</radialGradient>
			<path class="st2" d="M286.67,389.2c0.7-1.14-0.55-2.16-0.55-2.16l0.01-0.01C222.37,344.01,98.78,277.97,98.78,277.97
				c-11.23,34.78,3.92,62.81,3.92,62.81c15.74,33.29,45.81,43.38,45.81,43.38c13.89,5.7,27.77,6.09,27.77,6.09
				c2.17,0.4,86.34,0.05,108.89-0.06C286.13,390.17,286.67,389.2,286.67,389.2z"/>
			
				<radialGradient id="SVGID_4_" cx="385.8306" cy="136.3566" r="345.643" gradientTransform="matrix(0.9856 0 0 0.9856 12.0728 3.909)" gradientUnits="userSpaceOnUse">
				<stop  offset="0" style="stop-color:#FFCC99"/>
				<stop  offset="0.0784" style="stop-color:#FFA67D"/>
				<stop  offset="0.427" style="stop-color:#FF0000"/>
				<stop  offset="0.6654" style="stop-color:#FD0000"/>
				<stop  offset="0.7611" style="stop-color:#F60000"/>
				<stop  offset="0.8312" style="stop-color:#EA0000"/>
				<stop  offset="0.8888" style="stop-color:#D80000"/>
				<stop  offset="0.9386" style="stop-color:#C20000"/>
				<stop  offset="0.9825" style="stop-color:#A60000"/>
				<stop  offset="1" style="stop-color:#990000"/>
			</radialGradient>
			<path class="st3" d="M296.3,94.61c-6.32,0.56-23.37,4.44-23.37,4.44c-38.43,9.93-47.52,44.81-47.52,44.81
				c-7.01,21.96,0.19,46.05,0.19,46.05c12.83,56.93,75.96,150.47,89.54,170.12c0.96,0.96,1.72,0.61,1.72,0.61
				c1.46-0.41,1.36-1.81,1.36-1.81l0.02,0.02C339.12,149.97,296.3,94.61,296.3,94.61z"/>
			
				<radialGradient id="SVGID_5_" cx="385.9049" cy="136.3593" r="346.0299" gradientTransform="matrix(0.9856 0 0 0.9856 12.0728 3.909)" gradientUnits="userSpaceOnUse">
				<stop  offset="0" style="stop-color:#FFCC99"/>
				<stop  offset="0.0784" style="stop-color:#FFA67D"/>
				<stop  offset="0.427" style="stop-color:#FF0000"/>
				<stop  offset="0.6654" style="stop-color:#FD0000"/>
				<stop  offset="0.7611" style="stop-color:#F60000"/>
				<stop  offset="0.8312" style="stop-color:#EA0000"/>
				<stop  offset="0.8888" style="stop-color:#D80000"/>
				<stop  offset="0.9386" style="stop-color:#C20000"/>
				<stop  offset="0.9825" style="stop-color:#A60000"/>
				<stop  offset="1" style="stop-color:#990000"/>
			</radialGradient>
			<path class="st4" d="M344.37,360.59c1.41,0.54,2.11-0.81,2.11-0.81l0.01,0.02c13.93-20.14,76.7-113.18,89.47-169.89
				c0,0,6.92-27.45,0.23-46.05c0,0-9.49-35.42-47.98-44.78c0,0-11.08-2.81-22.86-4.47c0,0-43.02,55.39-22.11,264.38h0.03
				C343.42,360.31,344.37,360.59,344.37,360.59z"/>
			
				<radialGradient id="SVGID_6_" cx="385.9067" cy="136.3558" r="346.013" gradientTransform="matrix(0.9856 0 0 0.9856 12.0728 3.909)" gradientUnits="userSpaceOnUse">
				<stop  offset="0" style="stop-color:#FFCC99"/>
				<stop  offset="0.0784" style="stop-color:#FFA67D"/>
				<stop  offset="0.427" style="stop-color:#FF0000"/>
				<stop  offset="0.6654" style="stop-color:#FD0000"/>
				<stop  offset="0.7611" style="stop-color:#F60000"/>
				<stop  offset="0.8312" style="stop-color:#EA0000"/>
				<stop  offset="0.8888" style="stop-color:#D80000"/>
				<stop  offset="0.9386" style="stop-color:#C20000"/>
				<stop  offset="0.9825" style="stop-color:#A60000"/>
				<stop  offset="1" style="stop-color:#990000"/>
			</radialGradient>
			<path class="st5" d="M378.74,401.03c0,0-1.27,0.16-1.63,1.12c0,0-0.3,1.3,0.56,1.96l-0.02,0.01
				c13.9,9.97,56.03,39.42,76.33,45.14c0,0,37.53,12.79,70.13-43.21l-145.36-5.06L378.74,401.03z"/>
			
				<radialGradient id="SVGID_7_" cx="385.9049" cy="136.3662" r="346.008" gradientTransform="matrix(0.9856 0 0 0.9856 12.0728 3.909)" gradientUnits="userSpaceOnUse">
				<stop  offset="0" style="stop-color:#FFCC99"/>
				<stop  offset="0.0784" style="stop-color:#FFA67D"/>
				<stop  offset="0.427" style="stop-color:#FF0000"/>
				<stop  offset="0.6654" style="stop-color:#FD0000"/>
				<stop  offset="0.7611" style="stop-color:#F60000"/>
				<stop  offset="0.8312" style="stop-color:#EA0000"/>
				<stop  offset="0.8888" style="stop-color:#D80000"/>
				<stop  offset="0.9386" style="stop-color:#C20000"/>
				<stop  offset="0.9825" style="stop-color:#A60000"/>
				<stop  offset="1" style="stop-color:#990000"/>
			</radialGradient>
			<path class="st6" d="M562.75,277.67c0,0-123.41,66.23-187.22,109.27l0.02,0.02c0,0-1.15,0.76-0.75,2.11c0,0,0.61,1.09,1.49,1.09
				v0.01c22.84,0.03,109.32,0.14,111.5-0.27c0,0,11.18-0.44,25-5.75c0,0,30.75-9.78,46.73-44.71
				C559.53,339.45,573.78,310.95,562.75,277.67z"/>
			
				<radialGradient id="SVGID_8_" cx="385.9058" cy="136.3714" r="346.0019" gradientTransform="matrix(0.9856 0 0 0.9856 12.0728 3.909)" gradientUnits="userSpaceOnUse">
				<stop  offset="0" style="stop-color:#FFCC99"/>
				<stop  offset="0.0784" style="stop-color:#FFA67D"/>
				<stop  offset="0.427" style="stop-color:#FF0000"/>
				<stop  offset="0.6654" style="stop-color:#FD0000"/>
				<stop  offset="0.7611" style="stop-color:#F60000"/>
				<stop  offset="0.8312" style="stop-color:#EA0000"/>
				<stop  offset="0.8888" style="stop-color:#D80000"/>
				<stop  offset="0.9386" style="stop-color:#C20000"/>
				<stop  offset="0.9825" style="stop-color:#A60000"/>
				<stop  offset="1" style="stop-color:#990000"/>
			</radialGradient>
			<path class="st7" d="M363.87,372.22c0,0,1.01,0.75,1.95,0.14v0.01c20.81-10.33,107.35-54.36,143.19-89.29
				c0,0,22.7-18.23,23.9-47.5c2.62-40.65-38.3-78.27-38.3-78.27s-75.7,91.63-131.17,212.61l0.03-0.01
				C363.47,369.91,362.82,371.31,363.87,372.22z"/>
		</g>
	</g>
</g>
</svg>
