<?xml version="1.0" encoding="utf-8"?>
<!-- Generator: Adobe Illustrator 24.0.1, SVG Export Plug-In . SVG Version: 6.00 Build 0)  -->
<svg version="1.1" id="Layer_1" xmlns="http://www.w3.org/2000/svg" xmlns:xlink="http://www.w3.org/1999/xlink" x="0px" y="0px"
	 viewBox="0 0 300 187.3" style="enable-background:new 0 0 300 187.3;" xml:space="preserve">
<style type="text/css">
	.st0{fill:#117EC2;}
</style>
<g>
	<path class="st0" d="M143.62,161.25c-50.44,4.65-103-2.68-110.37-42.09c-3.6-19.43,5.26-40.03,17-52.84v-6.84
		c-21.15,18.55-32.62,42.03-26.01,69.75c8.43,35.57,53.54,55.71,122.4,49.02c27.26-2.64,62.91-11.41,87.71-25.03v-19.34
		C211.85,147.29,174.63,158.37,143.62,161.25z M276.49,59.02C264.52,0.61,151.12-3.09,78.01,41.4v4.92
		C151.03,8.78,254.61,9.01,264.04,62.81c3.16,17.8-6.86,36.34-24.77,47.02v13.96C260.81,115.89,282.91,90.32,276.49,59.02z"/>
	<path class="st0" d="M230.28,50.51h-13.22v58.9c0,6.9,3.34,12.9,13.22,13.86V50.51z"/>
	<path class="st0" d="M72.82,72.01H59.57l-0.01,38.48c0,6.93,3.35,12.92,13.25,13.86V72.01z"/>
	<rect x="59.57" y="52.3" class="st0" width="13.21" height="12.53"/>
	<path class="st0" d="M152.02,123.75c-10.7,0-15.23-7.44-15.23-14.77V57.89h13.11v14.13h9.87V82.6h-9.87v25.57
		c0,2.99,1.42,4.65,4.53,4.65h5.34v10.92H152.02"/>
	<path class="st0" d="M176.14,101.98c0,6.71,4.2,11.64,11.62,11.64c5.82,0,8.68-1.61,12.04-4.93l8.1,7.72
		c-5.19,5.13-10.63,8.25-20.24,8.25c-12.54,0-24.56-6.85-24.56-26.81c0-17.06,10.5-26.71,24.27-26.71c14,0,22.04,11.29,22.04,26.12
		v4.73H176.14 M186.79,81.98c-4.49,0-7.93,2.31-9.4,5.43c-0.85,1.87-1.16,3.33-1.26,5.64h20.2
		C196.09,87.41,193.53,81.98,186.79,81.98z"/>
	<path class="st0" d="M108.43,82.6c3.84,0,5.44,1.9,5.44,4.98v36.24h13.11V87.51c0-7.36-3.92-15.48-15.43-15.48l-27.08-0.01v51.81
		h13.12V82.6H108.43z"/>
	<g>
		<path class="st0" d="M244.51,61.03c-2.91,0-5.24-2.35-5.24-5.26c0-2.9,2.33-5.26,5.24-5.26c2.9,0,5.28,2.36,5.28,5.26
			C249.79,58.68,247.41,61.03,244.51,61.03z M244.51,51.39c-2.4,0-4.33,1.99-4.33,4.38c0,2.41,1.93,4.36,4.33,4.36
			c2.4,0,4.4-1.95,4.4-4.36C248.9,53.37,246.91,51.39,244.51,51.39z M246.84,58.93h-0.98c-0.09,0-0.17-0.06-0.2-0.13l-1.33-2.26
			c-0.04-0.05-0.15-0.1-0.19-0.1c0,0-0.22,0-0.39,0c-0.1,0-0.19,0-0.22,0v2.25c0,0.11-0.08,0.24-0.22,0.24h-0.89
			c-0.13,0-0.22-0.13-0.22-0.24V53c0-0.33,0.11-0.47,0.4-0.51c0.32-0.03,1.15-0.08,1.61-0.08c1.64,0,2.6,0.48,2.6,2v0.11
			c0,0.94-0.46,1.45-1.18,1.68l1.38,2.36c0.02,0.03,0.03,0.12,0.03,0.17C247.06,58.82,247.01,58.93,246.84,58.93z M245.57,54.42
			c0-0.63-0.39-0.84-1.24-0.84c-0.11,0-0.39,0-0.61,0c-0.1,0-0.19,0-0.23,0v1.8c0.13,0,0.73,0.03,0.84,0.03
			c0.84,0,1.24-0.28,1.24-0.88V54.42z"/>
	</g>
</g>
</svg>
