<?xml version="1.0" encoding="utf-8"?>
<!-- Generator: Adobe Illustrator 24.0.1, SVG Export Plug-In . SVG Version: 6.00 Build 0)  -->
<svg version="1.1" id="Layer_1" xmlns="http://www.w3.org/2000/svg" xmlns:xlink="http://www.w3.org/1999/xlink" x="0px" y="0px"
	 viewBox="0 0 792 253" style="enable-background:new 0 0 792 253;" xml:space="preserve">
<style type="text/css">
	.st0{fill:#297FB1;}
	.st1{fill:#FFFFFF;stroke:#165A80;stroke-width:3;}
	.st2{fill:#FFFFFF;}
	.st3{fill:#165A80;}
	.st4{fill:url(#SVGID_1_);}
	.st5{fill:url(#SVGID_2_);}
	.st6{fill-rule:evenodd;clip-rule:evenodd;}
</style>
<path class="st0" d="M66.72,61.83h82.14c-0.12,10.64,0.8,21.44,9.81,26.84c5.08,3.39,10.62,4.69,16.39,5v71.8
	c0,4.93-4,8.94-8.94,8.94H66.71c-4.93,0-8.94-4-8.94-8.94V70.76C57.8,65.83,61.79,61.83,66.72,61.83z"/>
<g>
	<path class="st1" d="M56.46,101.38c-1.73,0-3.12-1.41-3.12-3.12c0-1.73,1.41-3.12,3.12-3.12c1.41,0,2.57,0.93,2.96,2.22h58.44v1.81
		H59.42C59.03,100.45,57.87,101.38,56.46,101.38z"/>
	<path class="st1" d="M55.65,127.63c1.29,0,2.4,0.8,2.88,1.91h41.41l6.05,6.05h29.57v2.42h-30.57l-6.05-6.05H58.53
		c-0.47,1.12-1.59,1.91-2.88,1.91c-1.73,0-3.12-1.41-3.12-3.12C52.53,129.05,53.94,127.63,55.65,127.63z"/>
	<path class="st1" d="M37.75,116.53c1.32,0,2.44,0.81,2.91,1.95h81.31v2.42H40.66c-0.47,1.15-1.61,1.96-2.91,1.96
		c-1.74,0-3.17-1.42-3.17-3.17C34.58,117.96,35.99,116.53,37.75,116.53z"/>
	<path class="st1" d="M76.05,143.44c1.32,0,2.46,0.81,2.93,1.95h39.15l6.05,6.05h35.31v2.42h-36.31l-6.05-6.05H78.98
		c-0.47,1.15-1.61,1.96-2.93,1.96c-1.74,0-3.17-1.42-3.17-3.17C72.89,144.87,74.31,143.44,76.05,143.44z"/>
	<path class="st2" d="M56.46,101.38c-1.73,0-3.12-1.41-3.12-3.12c0-1.73,1.41-3.12,3.12-3.12c1.41,0,2.57,0.93,2.96,2.22h58.44v1.81
		H59.42C59.03,100.45,57.87,101.38,56.46,101.38z"/>
	<path class="st1" d="M67.47,111.54c-1.73,0-3.12-1.41-3.12-3.12c0-1.73,1.41-3.12,3.12-3.12c1.41,0,2.57,0.93,2.96,2.22h58.44v1.81
		H70.43C70.04,110.61,68.87,111.54,67.47,111.54z"/>
	<path class="st2" d="M67.47,111.54c-1.73,0-3.12-1.41-3.12-3.12c0-1.73,1.41-3.12,3.12-3.12c1.41,0,2.57,0.93,2.96,2.22h58.44v1.81
		H70.43C70.04,110.61,68.87,111.54,67.47,111.54z"/>
	<path class="st2" d="M55.65,127.63c1.29,0,2.4,0.8,2.88,1.91h41.41l6.05,6.05h29.57v2.42h-30.57l-6.05-6.05H58.53
		c-0.47,1.12-1.59,1.91-2.88,1.91c-1.73,0-3.12-1.41-3.12-3.12C52.53,129.05,53.94,127.63,55.65,127.63z"/>
	<path class="st2" d="M37.75,116.53c1.32,0,2.44,0.81,2.91,1.95h81.31v2.42H40.66c-0.47,1.15-1.61,1.96-2.91,1.96
		c-1.74,0-3.17-1.42-3.17-3.17C34.58,117.96,35.99,116.53,37.75,116.53z"/>
	<path class="st2" d="M76.05,143.44c1.32,0,2.46,0.81,2.93,1.95h39.15l6.05,6.05h35.31v2.42h-36.31l-6.05-6.05H78.98
		c-0.47,1.15-1.61,1.96-2.93,1.96c-1.74,0-3.17-1.42-3.17-3.17C72.89,144.87,74.31,143.44,76.05,143.44z"/>
</g>
<g>
	<path class="st3" d="M181.2,154.64c-44.59,19.44-67.54-76.51-140.61-65.88c52.35-50.55,105.25,73.4,154.06,54.99
		C189.94,151.95,184.02,153.4,181.2,154.64z"/>
	<path class="st2" d="M186.79,148.17c-44.59,19.44-67.93-75.43-141-64.78c78.68-50.01,95.36,77.43,148.99,60.2
		C192.13,145.12,189.6,146.93,186.79,148.17z"/>
	
		<linearGradient id="SVGID_1_" gradientUnits="userSpaceOnUse" x1="684.6337" y1="501.0712" x2="789.0046" y2="501.0712" gradientTransform="matrix(-1 0 0 -1 854 612)">
		<stop  offset="0.1667" style="stop-color:#92B4D4"/>
		<stop  offset="0.236" style="stop-color:#A5C1DC"/>
		<stop  offset="0.3742" style="stop-color:#C6D7E8"/>
		<stop  offset="0.5172" style="stop-color:#DFE9F2"/>
		<stop  offset="0.6653" style="stop-color:#F1F5F9"/>
		<stop  offset="0.8217" style="stop-color:#FCFDFE"/>
		<stop  offset="1" style="stop-color:#FFFFFF"/>
	</linearGradient>
	<path class="st4" d="M169.37,145.87c-12.58-6.01-23.22-18.61-34.29-31.75c-15.8-18.75-32.14-38.12-54.8-38.12
		c-4.93,0-9.99,0.88-15.28,2.68c29.98,3.08,50.6,23.29,68.99,41.27C146.61,132.28,157.73,143.17,169.37,145.87L169.37,145.87z"/>
</g>
<path class="st2" d="M126.18,69.05c0,20.69,16.78,37.48,37.48,37.48c20.69,0,37.48-16.78,37.48-37.48s-16.78-37.48-37.48-37.48
	C142.95,31.57,126.18,48.35,126.18,69.05z"/>
<radialGradient id="SVGID_2_" cx="716.5378" cy="577.3325" r="87.6985" gradientTransform="matrix(-1 0 0 -1 854 612)" gradientUnits="userSpaceOnUse">
	<stop  offset="0.1944" style="stop-color:#DAE3EF"/>
	<stop  offset="0.8333" style="stop-color:#92B4D4"/>
</radialGradient>
<path class="st5" d="M131.13,69.27c0,18.17,14.73,32.9,32.9,32.9c18.17,0,32.9-14.73,32.9-32.9s-14.73-32.9-32.9-32.9
	C145.84,36.36,131.13,51.1,131.13,69.27z"/>
<path class="st2" d="M188.88,60.67c-0.14,10.03-11.33,18.04-25.03,17.87c-13.68-0.17-24.69-8.43-24.56-18.46
	s11.35-18.04,25.03-17.87C178.02,42.38,189.01,50.64,188.88,60.67z"/>
<g>
	<path class="st6" d="M548.85,139.33c-2.64-4.05-1.93-14.24-1.93-22.15c0-9.03,0.41-23.57,0.41-23.57s9.48,0,14.23,0
		c2.24-4.81,6.5-14.63,6.5-14.63l-21.12,0.1l-0.02-23.68c0,0-15.44,0-23.17,0c0,7.86,0,24.1,0,24.1h-3.13c0,0-3.13,9.2-5,13.29
		c-8.26-10.99-21.25-17-36.99-15.85c-20.75,1.51-37.31,15.7-39.02,36.58c-2.61,31.75,18.15,49.31,47.96,47.15
		c18.1-1.32,28.7-10.94,34.14-26.42c-6.64,0-13.28,0-19.92,0c-7.57,16.27-41.8,12.92-39.42-10.16c20.05,0,40.1,0,60.15,0
		c1.71,0.63,0.07-2.1,1.22-2.03c-1.02,31.67,12.58,41.56,40.24,36.58c0-5.55,0-11.11,0-16.66
		C557.57,142.16,551.71,143.73,548.85,139.33z M462.38,110.27c-0.05-21.93,38.51-22.95,37.8,0
		C487.58,110.27,474.99,110.27,462.38,110.27z M523.77,117.99c0.1,0.73-0.36,0.83-0.41,0.41c-0.97-8.86-2.15-17.6-6.5-23.57
		c-0.44-0.1-0.88-1.07-0.88-1.07l7.82,0.07C523.8,93.82,523.77,109.86,523.77,117.99z"/>
	<path class="st6" d="M753,131c-2.35-15.51-17.27-18.22-33.73-21.54c-7.77-1.56-20.24-3.1-19.51-11.38
		c0.61-6.93,15.89-9.03,23.57-4.88c3.62,1.95,4.23,5.47,6.1,8.94c7.04,0,14.09,0,21.13,0c-0.9-7.82-3.66-13.48-8.54-17.48
		c-18.05-14.8-67.55-10.55-65.44,19.1c0.98,13.75,15.29,17.44,28.86,20.32c8.38,1.78,23.52,3.42,24.39,11.38
		c1.68,15.48-35.33,14.16-33.33-2.44c-14.09,0-28.18,0-42.27,0c-2.47,3.95-4.08,6.82-7.72,8.94c-6.38,3.71-14.26,3.01-18.7,0.81
		c-16.21-8.06-14.63-48.23,7.72-49.59c9.53-0.58,17.26,4.4,18.7,13.82c7.45,0,14.9,0,22.35,0c-2.02-19.56-17.19-29.01-36.58-30.08
		c-27.89-1.54-43.83,15.34-46.33,39.42c0-12.46,0-24.93,0-37.39c-5.01,0-15.04,0-15.04,0l-7.98,17.88c0,0-0.3,52.13-0.15,61.78
		c7.72,0,15.44,0,23.17,0c0.27-11.65-0.54-24.39,0.41-35.36c1.91,24.22,20.36,39.49,47.55,37.39c17.21-1.32,27.76-10.36,33.73-23.57
		c3.42,31.97,75.75,32.36,77.63-1.22V131z"/>
	<path class="st6" d="M226.4,76.53c0,27.5,0,55.01,0,82.51c7.32,0,14.63,0,21.95,0c0-9.75,0-19.51,0-29.26
		c4.91-4.44,9.28-9.42,14.63-13.41c5.79,14.12,11.19,28.62,17.07,42.68c7.59-0.27,16.26,0.54,23.17-0.41
		c-8.84-18.8-16.94-38.34-25.61-57.31c2.42-3.13,4.78-6.33,8.13-8.54c5.98,15.92,13.87,34.26,21.13,52.02
		c7.25,17.71,12.55,35.73,35.77,37.39c3.56,0.25,6.76-0.19,10.57,0c0-5.96,0-11.92,0-17.88c-8.38-0.22-17.02,0.15-18.29-6.5
		c-0.91-4.81,1.93-9.01,4.06-13.82c4.28-9.67,6.82-16.27,10.97-25.61c1.98-4.47,5.69-12.6,5.69-12.6V78.97c0,0-7.04,0-10.57,0
		c-7.6,18-14.6,36.61-22.35,54.46c-7.82-18.32-14.16-38.14-21.54-56.9c-8.54,0-17.07,0-25.61,0c-9.31,8.57-18.04,19.9-26.83,27.64
		c0.22-9.57-0.27-18.43-0.41-27.64C241.02,76.53,233.7,76.53,226.4,76.53z"/>
	<path class="st6" d="M417.4,158.67c0,0,14.11-0.03,21.83-0.03c0.46-13.19-0.44-27.57-0.41-39.83c0.03-11.91,0.69-22.27-3.66-30.08
		c-4.59-8.21-15.61-13.14-30.08-11.79c-10.79,1.02-17.82,7.2-23.17,13.01c0-3.66,0-7.32,0-10.97c-4.88,0-14.63,0-14.63,0
		l-7.32,16.66c0,0,0,20.73,0,31.3c0,11.01,0,21.71,0,31.7c7.72,0,21.86-0.17,21.86-0.17l-0.15-31.97
		c0.51-13.77,2.98-27.49,10.4-30.86c8.57-3.9,18.05-1.44,21.54,4.88c2.3,4.17,3.39,11.52,3.81,19.63L417.4,158.67z"/>
	<g>
		<path class="st0" d="M369.06,182.55c-0.86-0.19-1.56-0.49-2.08-0.9c-0.52-0.41-0.9-0.93-1.1-1.56c-0.22-0.64-0.32-1.42-0.32-2.34
			v-1.59c0-0.9,0.1-1.68,0.3-2.32c0.2-0.64,0.56-1.19,1.05-1.59c0.49-0.41,1.15-0.71,1.98-0.91c0.83-0.2,1.85-0.3,3.08-0.3h1.88
			c1.32,0,2.42,0.08,3.27,0.25c0.85,0.17,1.52,0.44,2.03,0.85c0.49,0.39,0.85,0.91,1.03,1.56c0.19,0.64,0.29,1.46,0.29,2.42v1.71
			h-11.31v0.46c0,0.58,0.19,1.02,0.58,1.35c0.39,0.34,1.08,0.49,2.07,0.49h2.47c0.49,0,0.9-0.02,1.22-0.03
			c0.32-0.02,0.58-0.08,0.76-0.17c0.19-0.08,0.32-0.2,0.41-0.36s0.12-0.34,0.12-0.58h3.67v0.24c0,0.46-0.07,0.91-0.22,1.34
			c-0.15,0.44-0.46,0.81-0.91,1.15c-0.46,0.34-1.1,0.59-1.95,0.81c-0.85,0.2-1.95,0.3-3.32,0.3h-1.73
			C371.03,182.82,369.95,182.73,369.06,182.55z M371.67,173.79c-0.58,0-1.02,0.07-1.35,0.19c-0.34,0.12-0.58,0.29-0.75,0.47
			c-0.17,0.19-0.27,0.39-0.3,0.61c-0.03,0.22-0.07,0.41-0.07,0.58h7.59c0-0.2-0.02-0.42-0.07-0.63c-0.05-0.22-0.17-0.41-0.34-0.59
			c-0.19-0.19-0.46-0.34-0.81-0.46c-0.36-0.12-0.83-0.17-1.44-0.17L371.67,173.79L371.67,173.79z"/>
		<path class="st0" d="M396.96,172.42c0.95,0.9,1.42,2.22,1.42,4v6.38h-3.93v-5.74c0-1.05-0.25-1.85-0.78-2.39
			c-0.52-0.56-1.41-0.83-2.62-0.83h-0.58c-1.12,0-1.96,0.29-2.54,0.85c-0.58,0.58-0.85,1.35-0.85,2.37v5.74h-3.98v-11.72h3.91v1.71
			c0.12-0.19,0.25-0.39,0.42-0.59c0.17-0.2,0.41-0.39,0.69-0.56c0.3-0.17,0.68-0.3,1.15-0.41s1.05-0.15,1.76-0.15h1.24
			C394.43,171.08,396.01,171.54,396.96,172.42z"/>
		<path class="st0" d="M406.64,171.08v11.43c0,1.08-0.08,1.98-0.27,2.68c-0.19,0.69-0.51,1.22-0.97,1.61
			c-0.47,0.39-1.1,0.66-1.88,0.81c-0.8,0.15-1.8,0.22-3.01,0.22v-3.3c0.83,0,1.39-0.17,1.71-0.49c0.32-0.34,0.47-0.83,0.47-1.49
			V171.1h3.95V171.08z M406.68,169.49h-3.96v-3.15h3.96V169.49z"/>
		<path class="st0" d="M418.21,171.03c1.24,0,2.27,0.1,3.1,0.29c0.85,0.19,1.52,0.51,2.03,0.93c0.52,0.44,0.9,1,1.12,1.71
			c0.22,0.69,0.34,1.56,0.34,2.57v0.97c0,0.98-0.1,1.81-0.29,2.47c-0.2,0.68-0.51,1.22-0.91,1.64c-0.41,0.42-0.93,0.73-1.57,0.91
			c-0.64,0.19-1.41,0.29-2.3,0.29h-4.72c-0.83,0-1.56-0.08-2.18-0.27c-0.64-0.19-1.19-0.47-1.61-0.9c-0.44-0.42-0.76-0.97-0.98-1.64
			c-0.22-0.68-0.34-1.51-0.34-2.49v-0.97c0-0.98,0.1-1.81,0.29-2.51c0.2-0.69,0.54-1.27,1.03-1.71c0.49-0.44,1.13-0.76,1.96-0.97
			c0.81-0.2,1.83-0.3,3.05-0.3h2V171.03z M421.33,176.64c0-0.44-0.05-0.83-0.15-1.17c-0.1-0.34-0.29-0.61-0.52-0.81
			c-0.25-0.2-0.61-0.37-1.05-0.47c-0.44-0.1-1-0.15-1.66-0.15h-1.19c-0.66,0-1.22,0.05-1.66,0.15c-0.44,0.1-0.8,0.25-1.05,0.47
			c-0.25,0.22-0.42,0.49-0.52,0.81c-0.1,0.34-0.15,0.71-0.15,1.17v0.47c0,0.49,0.05,0.91,0.17,1.25c0.12,0.34,0.29,0.61,0.54,0.83
			c0.25,0.22,0.59,0.37,1,0.47c0.42,0.1,0.93,0.15,1.52,0.15h1.47c0.59,0,1.12-0.05,1.52-0.15c0.42-0.1,0.76-0.25,1-0.47
			c0.25-0.22,0.44-0.49,0.54-0.83c0.1-0.34,0.17-0.76,0.17-1.25v-0.47H421.33z"/>
		<path class="st0" d="M434.38,179.26l3.96-8.18h3.79l-5.52,11.72c-0.39,0.85-0.81,1.59-1.24,2.22c-0.42,0.63-0.93,1.13-1.52,1.56
			c-0.59,0.41-1.3,0.71-2.15,0.93c-0.83,0.2-1.86,0.3-3.08,0.3v-3.54c0.49,0,0.91-0.02,1.29-0.07c0.37-0.03,0.69-0.12,0.97-0.22
			c0.27-0.1,0.51-0.25,0.71-0.44c0.2-0.19,0.37-0.44,0.51-0.76l-5.47-11.72h3.79L434.38,179.26z"/>
		<path class="st0" d="M465.68,179.97c0.54,0,0.97-0.07,1.29-0.17c0.32-0.12,0.58-0.27,0.75-0.46c0.17-0.19,0.29-0.39,0.34-0.63
			c0.05-0.24,0.08-0.47,0.08-0.71h4.05c0,0.61-0.07,1.2-0.22,1.78c-0.15,0.58-0.46,1.08-0.91,1.52s-1.12,0.81-1.98,1.08
			c-0.86,0.27-1.98,0.41-3.39,0.41h-1.3c-1.08,0-2.03-0.1-2.79-0.3c-0.78-0.2-1.41-0.52-1.9-0.95c-0.49-0.42-0.85-0.95-1.07-1.59
			c-0.22-0.63-0.34-1.37-0.34-2.24v-3.37h-1.44v-3.27h1.44v-2.25h3.93v2.25h8.3v3.27h-8.3v3.56c0,0.71,0.19,1.24,0.56,1.56
			c0.37,0.34,0.98,0.49,1.85,0.49h1.07V179.97z"/>
		<path class="st0" d="M488.02,171.42c0.78,0.22,1.41,0.56,1.88,1c0.47,0.46,0.83,1.02,1.03,1.68c0.2,0.68,0.3,1.46,0.3,2.34v6.37
			h-3.95v-6.1c0-0.51-0.05-0.93-0.15-1.3c-0.1-0.36-0.29-0.66-0.54-0.9c-0.25-0.24-0.59-0.41-1.02-0.52
			c-0.42-0.1-0.97-0.17-1.61-0.17h-1.91c-1,0-1.76,0.27-2.29,0.83c-0.52,0.56-0.8,1.35-0.8,2.39v5.76h-3.96v-16.46h3.91v6.42
			c0.14-0.2,0.27-0.41,0.44-0.61c0.17-0.2,0.39-0.39,0.66-0.54s0.59-0.29,0.97-0.37c0.37-0.1,0.85-0.14,1.41-0.14h2.78
			C486.29,171.08,487.24,171.18,488.02,171.42z"/>
		<path class="st0" d="M497.48,182.55c-0.86-0.19-1.56-0.49-2.08-0.9c-0.52-0.41-0.9-0.93-1.1-1.56c-0.22-0.64-0.32-1.42-0.32-2.34
			v-1.59c0-0.9,0.1-1.68,0.3-2.32c0.2-0.64,0.56-1.19,1.05-1.59c0.49-0.41,1.15-0.71,1.98-0.91c0.83-0.2,1.85-0.3,3.08-0.3h1.88
			c1.32,0,2.42,0.08,3.27,0.25s1.52,0.44,2.03,0.85c0.49,0.39,0.85,0.91,1.03,1.56s0.29,1.46,0.29,2.42v1.71h-11.31v0.46
			c0,0.58,0.19,1.02,0.58,1.35c0.39,0.34,1.08,0.49,2.07,0.49h2.47c0.49,0,0.9-0.02,1.22-0.03c0.32-0.02,0.58-0.08,0.78-0.17
			c0.19-0.08,0.32-0.2,0.41-0.36s0.12-0.34,0.12-0.58h3.67v0.24c0,0.46-0.07,0.91-0.22,1.34c-0.15,0.44-0.46,0.81-0.91,1.15
			c-0.46,0.34-1.1,0.59-1.95,0.81c-0.85,0.2-1.95,0.3-3.32,0.3h-1.73C499.43,182.82,498.35,182.73,497.48,182.55z M500.09,173.79
			c-0.58,0-1.02,0.07-1.35,0.19c-0.34,0.12-0.58,0.29-0.75,0.47s-0.27,0.39-0.3,0.61c-0.03,0.22-0.07,0.41-0.07,0.58h7.59
			c0-0.2-0.02-0.42-0.07-0.63c-0.05-0.22-0.17-0.41-0.34-0.59c-0.19-0.19-0.46-0.34-0.81-0.46c-0.36-0.12-0.83-0.17-1.44-0.17
			L500.09,173.79L500.09,173.79z"/>
		<path class="st0" d="M532.25,175.28c0.85,0,1.54,0.03,2.05,0.08c0.51,0.05,0.91,0.14,1.22,0.24c0.3,0.1,0.52,0.22,0.64,0.37
			c0.14,0.15,0.25,0.3,0.34,0.49v-0.9c0-0.39-0.05-0.73-0.14-1c-0.1-0.27-0.25-0.47-0.46-0.64c-0.22-0.15-0.51-0.27-0.86-0.34
			c-0.36-0.07-0.81-0.08-1.35-0.08h-2.49c-0.51,0-0.91,0.02-1.25,0.07c-0.32,0.05-0.58,0.12-0.76,0.19
			c-0.19,0.08-0.32,0.19-0.39,0.3c-0.07,0.12-0.1,0.25-0.1,0.41h-3.74c0-1.13,0.39-1.98,1.17-2.54c0.78-0.56,2.07-0.85,3.86-0.85
			h4.32c1.05,0,1.95,0.12,2.66,0.34s1.29,0.52,1.71,0.91c0.42,0.39,0.73,0.85,0.91,1.41c0.19,0.54,0.27,1.13,0.27,1.8v7.28h-3.3
			v-1.32c-0.12,0.19-0.22,0.36-0.36,0.52c-0.12,0.15-0.32,0.29-0.61,0.41c-0.27,0.12-0.66,0.22-1.17,0.29c-0.49,0.07-1.17,0.1-2,0.1
			h-2.62c-1.71,0-2.96-0.25-3.74-0.78c-0.8-0.51-1.19-1.37-1.19-2.59v-0.66c0-0.59,0.07-1.1,0.22-1.52c0.15-0.44,0.42-0.8,0.8-1.08
			c0.37-0.29,0.88-0.51,1.52-0.64c0.63-0.14,1.44-0.22,2.42-0.22h2.42V175.28z M529.19,179.97c0.32,0.14,0.78,0.2,1.35,0.2h3.79
			c0.59,0,1.07-0.07,1.42-0.19c0.36-0.14,0.52-0.44,0.52-0.93c0-0.47-0.17-0.78-0.51-0.93c-0.34-0.14-0.81-0.22-1.44-0.22h-3.79
			c-0.56,0-1,0.07-1.34,0.19c-0.34,0.14-0.51,0.44-0.51,0.95C528.69,179.53,528.86,179.84,529.19,179.97z"/>
		<path class="st0" d="M553.28,175.18c-0.08-0.24-0.22-0.46-0.41-0.66c-0.19-0.2-0.44-0.37-0.78-0.51
			c-0.32-0.12-0.73-0.19-1.22-0.19h-1.02c-0.95,0-1.68,0.27-2.17,0.8c-0.49,0.52-0.75,1.2-0.75,2v6.16h-4.01v-11.72h4.01v1.73
			c0.1-0.24,0.25-0.46,0.41-0.66c0.17-0.2,0.37-0.39,0.64-0.54c0.25-0.15,0.58-0.29,0.93-0.37c0.36-0.1,0.8-0.14,1.3-0.14h1.59
			c1.07,0,1.96,0.12,2.68,0.37c0.71,0.25,1.27,0.58,1.69,1c0.42,0.42,0.71,0.93,0.88,1.51c0.17,0.58,0.25,1.2,0.25,1.88h-3.93
			C553.4,175.65,553.37,175.42,553.28,175.18z"/>
		<path class="st0" d="M567.93,179.97c0.54,0,0.97-0.07,1.29-0.17c0.32-0.12,0.58-0.27,0.75-0.46c0.17-0.19,0.29-0.39,0.34-0.63
			c0.05-0.24,0.08-0.47,0.08-0.71h4.05c0,0.61-0.07,1.2-0.22,1.78c-0.15,0.58-0.46,1.08-0.91,1.52c-0.46,0.44-1.12,0.81-1.98,1.08
			c-0.86,0.27-1.98,0.41-3.39,0.41h-1.3c-1.08,0-2.03-0.1-2.79-0.3c-0.78-0.2-1.41-0.52-1.9-0.95c-0.49-0.42-0.85-0.95-1.07-1.59
			c-0.22-0.63-0.34-1.37-0.34-2.24v-3.37h-1.44v-3.27h1.44v-2.25h3.93v2.25h8.3v3.27h-8.3v3.56c0,0.71,0.19,1.24,0.56,1.56
			c0.37,0.34,0.98,0.49,1.83,0.49h1.08V179.97z"/>
		<path class="st0" d="M598.48,171.03c1.24,0,2.27,0.1,3.1,0.29c0.85,0.19,1.52,0.51,2.03,0.93c0.53,0.44,0.9,1,1.12,1.71
			c0.22,0.69,0.34,1.56,0.34,2.57v0.97c0,0.98-0.1,1.81-0.29,2.47c-0.2,0.68-0.51,1.22-0.91,1.64c-0.41,0.42-0.93,0.73-1.57,0.91
			c-0.64,0.19-1.41,0.29-2.3,0.29h-4.72c-0.83,0-1.56-0.08-2.2-0.27c-0.64-0.19-1.19-0.47-1.61-0.9c-0.44-0.42-0.76-0.97-0.98-1.64
			c-0.22-0.68-0.34-1.51-0.34-2.49v-0.97c0-0.98,0.1-1.81,0.29-2.51c0.2-0.69,0.54-1.27,1.03-1.71c0.49-0.44,1.13-0.76,1.96-0.97
			c0.81-0.2,1.83-0.3,3.05-0.3h2.02V171.03z M601.58,176.64c0-0.44-0.05-0.83-0.15-1.17c-0.1-0.34-0.29-0.61-0.52-0.81
			c-0.25-0.2-0.61-0.37-1.05-0.47c-0.44-0.1-1-0.15-1.66-0.15h-1.19c-0.66,0-1.22,0.05-1.66,0.15c-0.44,0.1-0.8,0.25-1.05,0.47
			s-0.42,0.49-0.52,0.81c-0.1,0.34-0.15,0.71-0.15,1.17v0.47c0,0.49,0.05,0.91,0.17,1.25c0.12,0.34,0.29,0.61,0.54,0.83
			c0.25,0.22,0.59,0.37,1,0.47c0.42,0.1,0.93,0.15,1.52,0.15h1.47c0.59,0,1.12-0.05,1.52-0.15c0.42-0.1,0.76-0.25,1-0.47
			c0.25-0.22,0.44-0.49,0.54-0.83c0.12-0.34,0.17-0.76,0.17-1.25v-0.47H601.58z"/>
		<path class="st0" d="M617.69,174.28h-5.03v8.52h-3.96v-8.52h-1.44v-3.25h1.44v-0.54c0-0.64,0.08-1.22,0.24-1.74
			c0.15-0.51,0.42-0.95,0.78-1.3c0.36-0.36,0.83-0.63,1.42-0.81c0.59-0.19,1.34-0.29,2.22-0.29h3.96v3.27h-3.1
			c-0.63,0-1.05,0.08-1.25,0.24c-0.2,0.15-0.29,0.47-0.29,0.95v0.24h5.01V174.28z"/>
		<path class="st0" d="M648.1,180.57c-0.15,0.49-0.46,0.9-0.9,1.22c-0.46,0.34-1.08,0.59-1.91,0.76c-0.83,0.17-1.91,0.25-3.27,0.25
			h-1.78c-1.37,0-2.51-0.08-3.39-0.27c-0.88-0.19-1.57-0.47-2.08-0.88c-0.51-0.41-0.86-0.93-1.05-1.56c-0.2-0.64-0.3-1.42-0.3-2.34
			v-1.52c0-0.91,0.1-1.71,0.3-2.37c0.2-0.66,0.56-1.2,1.05-1.61c0.49-0.41,1.17-0.71,2-0.91c0.85-0.2,1.9-0.3,3.15-0.3h1.78
			c1.32,0,2.42,0.07,3.29,0.22s1.54,0.39,2.03,0.69c0.49,0.32,0.83,0.73,1.02,1.22c0.19,0.49,0.29,1.08,0.29,1.76v0.24h-3.74
			c0-0.22-0.03-0.42-0.12-0.58c-0.08-0.17-0.24-0.3-0.49-0.42c-0.24-0.12-0.59-0.2-1.03-0.25c-0.44-0.05-1.03-0.08-1.76-0.08h-0.9
			c-0.66,0-1.22,0.05-1.68,0.15s-0.81,0.27-1.08,0.49c-0.27,0.22-0.46,0.51-0.58,0.85c-0.12,0.36-0.17,0.78-0.17,1.29v0.76
			c0,0.95,0.25,1.63,0.78,2.03c0.53,0.41,1.42,0.61,2.73,0.61h0.95c0.73,0,1.3-0.03,1.74-0.1c0.44-0.07,0.78-0.15,1.02-0.27
			c0.24-0.12,0.39-0.27,0.46-0.46c0.07-0.19,0.1-0.41,0.1-0.64h3.74v0.36C648.34,179.53,648.26,180.07,648.1,180.57z"/>
		<path class="st0" d="M659.25,171.03c1.24,0,2.27,0.1,3.1,0.29c0.85,0.19,1.52,0.51,2.03,0.93c0.52,0.44,0.9,1,1.12,1.71
			c0.22,0.69,0.34,1.56,0.34,2.57v0.97c0,0.98-0.1,1.81-0.29,2.47c-0.2,0.68-0.51,1.22-0.91,1.64c-0.41,0.42-0.93,0.73-1.57,0.91
			c-0.64,0.19-1.41,0.29-2.3,0.29h-4.72c-0.83,0-1.56-0.08-2.18-0.27c-0.64-0.19-1.19-0.47-1.61-0.9c-0.44-0.42-0.76-0.97-0.98-1.64
			c-0.22-0.68-0.34-1.51-0.34-2.49v-0.97c0-0.98,0.1-1.81,0.29-2.51c0.2-0.69,0.54-1.27,1.03-1.71s1.13-0.76,1.96-0.97
			c0.81-0.2,1.83-0.3,3.05-0.3h2V171.03z M662.35,176.64c0-0.44-0.05-0.83-0.15-1.17c-0.1-0.34-0.29-0.61-0.53-0.81
			c-0.25-0.2-0.61-0.37-1.05-0.47c-0.44-0.1-1-0.15-1.66-0.15h-1.19c-0.66,0-1.22,0.05-1.66,0.15s-0.8,0.25-1.05,0.47
			c-0.25,0.22-0.42,0.49-0.52,0.81c-0.1,0.34-0.15,0.71-0.15,1.17v0.47c0,0.49,0.05,0.91,0.17,1.25c0.12,0.34,0.29,0.61,0.54,0.83
			s0.59,0.37,1,0.47c0.42,0.1,0.93,0.15,1.52,0.15h1.47c0.59,0,1.12-0.05,1.52-0.15c0.42-0.1,0.76-0.25,1-0.47
			c0.25-0.22,0.44-0.49,0.54-0.83c0.12-0.34,0.17-0.76,0.17-1.25v-0.47H662.35z"/>
		<path class="st0" d="M671.61,182.46c-0.75-0.24-1.35-0.56-1.85-1c-0.47-0.44-0.81-0.98-1.03-1.63c-0.22-0.64-0.32-1.37-0.32-2.18
			v-1.35c0-1.74,0.49-3.05,1.49-3.93s2.54-1.32,4.66-1.32h1.66c0.76,0,1.39,0.05,1.88,0.15c0.49,0.1,0.91,0.24,1.24,0.41
			c0.32,0.17,0.58,0.36,0.73,0.58c0.17,0.2,0.29,0.42,0.39,0.64v-6.47h3.93v16.46h-3.93v-1.49c-0.14,0.19-0.29,0.37-0.46,0.56
			c-0.19,0.19-0.44,0.34-0.76,0.49c-0.32,0.14-0.75,0.25-1.27,0.34c-0.52,0.08-1.17,0.12-1.95,0.12h-1.66
			C673.29,182.8,672.36,182.68,671.61,182.46z M675.62,174.03c-1.12,0-1.93,0.19-2.44,0.58c-0.51,0.37-0.76,1.08-0.76,2.13v0.47
			c0,1,0.25,1.68,0.76,2.05c0.51,0.37,1.32,0.56,2.44,0.56h1.52c1.2,0,2.05-0.24,2.52-0.69c0.47-0.47,0.73-1.13,0.73-2v-0.47
			c0-0.41-0.05-0.78-0.17-1.1c-0.12-0.32-0.29-0.59-0.56-0.81c-0.25-0.22-0.61-0.39-1.05-0.51c-0.44-0.12-1-0.19-1.66-0.19h-1.34
			V174.03z"/>
		<path class="st0" d="M692.17,169.49h-3.96v-3.15h3.96V169.49z M692.17,182.8h-3.96v-11.72h3.96V182.8z"/>
		<path class="st0" d="M709.34,172.42c0.95,0.9,1.42,2.22,1.42,4v6.38h-3.93v-5.74c0-1.05-0.25-1.85-0.78-2.39
			c-0.52-0.56-1.41-0.83-2.62-0.83h-0.58c-1.12,0-1.96,0.29-2.54,0.85c-0.58,0.58-0.85,1.35-0.85,2.37v5.74h-3.98v-11.72h3.91v1.71
			c0.12-0.19,0.25-0.39,0.42-0.59c0.17-0.2,0.41-0.39,0.69-0.56c0.3-0.17,0.68-0.3,1.15-0.41c0.47-0.1,1.05-0.15,1.76-0.15h1.24
			C706.82,171.08,708.39,171.54,709.34,172.42z"/>
		<path class="st0" d="M721.45,171.08c0.75,0,1.35,0.05,1.85,0.14c0.49,0.1,0.9,0.22,1.2,0.36s0.54,0.3,0.73,0.47
			c0.17,0.17,0.34,0.36,0.47,0.52v-1.49h3.93v10.86c0,1.08-0.12,2.02-0.34,2.79c-0.24,0.78-0.59,1.41-1.08,1.88
			c-0.49,0.49-1.13,0.83-1.91,1.05c-0.78,0.22-1.73,0.34-2.83,0.34h-3.56c-1.98,0-3.45-0.37-4.42-1.13
			c-0.97-0.75-1.46-1.73-1.46-2.95H718c0,0.17,0.05,0.34,0.14,0.49c0.08,0.15,0.24,0.29,0.46,0.41c0.22,0.12,0.53,0.22,0.9,0.29
			c0.37,0.07,0.83,0.1,1.39,0.1h1.81c0.54,0,1-0.03,1.39-0.12c0.39-0.08,0.69-0.22,0.93-0.42c0.24-0.2,0.41-0.47,0.52-0.81
			c0.12-0.34,0.17-0.75,0.17-1.25v-1.52c-0.1,0.24-0.22,0.46-0.37,0.66c-0.15,0.2-0.36,0.39-0.64,0.54
			c-0.27,0.15-0.64,0.29-1.1,0.37s-1.05,0.14-1.76,0.14h-2.24c-3.96,0-5.94-1.69-5.94-5.08v-1.42c0-1.83,0.49-3.17,1.49-3.98
			c1-0.81,2.44-1.24,4.32-1.24h2V171.08z M720.84,174.03c-1.12,0-1.93,0.19-2.44,0.58c-0.51,0.37-0.76,1.08-0.76,2.13v0.47
			c0,1,0.25,1.68,0.76,2.05c0.51,0.37,1.32,0.56,2.44,0.56h1.52c1.2,0,2.05-0.24,2.52-0.69c0.47-0.47,0.73-1.13,0.73-2v-0.47
			c0-0.41-0.05-0.78-0.17-1.1c-0.12-0.32-0.29-0.59-0.56-0.81c-0.25-0.22-0.61-0.39-1.05-0.51c-0.44-0.12-1-0.19-1.66-0.19h-1.34
			V174.03z"/>
	</g>
</g>
</svg>
