<?xml version="1.0" encoding="utf-8"?>
<!-- Generator: Adobe Illustrator 24.0.1, SVG Export Plug-In . SVG Version: 6.00 Build 0)  -->
<svg version="1.1" id="Layer_1" xmlns="http://www.w3.org/2000/svg" xmlns:xlink="http://www.w3.org/1999/xlink" x="0px" y="0px"
	 viewBox="0 0 377.88 292" style="enable-background:new 0 0 377.88 292;" xml:space="preserve">
<style type="text/css">
	.st0{fill:#297FB1;}
	.st1{fill:#FFFFFF;stroke:#165A80;stroke-width:4.1977;}
	.st2{fill:#FFFFFF;}
	.st3{fill:#165A80;}
	.st4{fill:url(#SVGID_1_);}
	.st5{fill:url(#SVGID_2_);}
	.st6{fill-rule:evenodd;clip-rule:evenodd;}
</style>
<g>
	<g>
		<path class="st0" d="M146.24,55.59h67.87c-0.09,8.79,0.66,17.71,8.1,22.18c4.2,2.8,8.78,3.87,13.55,4.13v59.33
			c0,4.08-3.3,7.38-7.38,7.38h-82.13c-4.08,0-7.38-3.31-7.38-7.38V62.97C138.86,58.9,142.16,55.59,146.24,55.59z"/>
		<g>
			<path class="st1" d="M137.76,88.27c-1.42,0-2.58-1.16-2.58-2.58s1.16-2.58,2.58-2.58c1.16,0,2.13,0.77,2.46,1.83h48.29v1.5
				h-48.29C139.89,87.5,138.92,88.27,137.76,88.27z"/>
			<path class="st1" d="M137.09,109.96c1.07,0,1.99,0.65,2.38,1.58h34.22l4.99,4.99h24.43v2h-25.26l-4.99-4.99h-33.39
				c-0.39,0.93-1.31,1.58-2.38,1.58c-1.42,0-2.58-1.16-2.58-2.58S135.67,109.96,137.09,109.96z"/>
			<path class="st1" d="M122.29,100.8c1.09,0,2.02,0.67,2.41,1.62h67.18v2H124.7c-0.39,0.95-1.32,1.62-2.41,1.62
				c-1.45,0-2.62-1.17-2.62-2.62C119.68,101.97,120.84,100.8,122.29,100.8z"/>
			<path class="st1" d="M153.94,123.03c1.09,0,2.03,0.67,2.42,1.62h32.35l4.99,4.99h29.17v2h-30l-4.99-4.99h-31.52
				c-0.39,0.95-1.33,1.62-2.42,1.62c-1.44,0-2.61-1.17-2.61-2.62C151.33,124.2,152.5,123.03,153.94,123.03z"/>
			<path class="st2" d="M137.76,88.27c-1.42,0-2.58-1.16-2.58-2.58s1.16-2.58,2.58-2.58c1.16,0,2.13,0.77,2.46,1.83h48.29v1.5
				h-48.29C139.89,87.5,138.92,88.27,137.76,88.27z"/>
			<path class="st1" d="M146.85,96.67c-1.42,0-2.58-1.16-2.58-2.58s1.16-2.58,2.58-2.58c1.16,0,2.13,0.77,2.46,1.83h48.29v1.5
				h-48.29C148.99,95.89,148.01,96.67,146.85,96.67z"/>
			<path class="st2" d="M146.85,96.67c-1.42,0-2.58-1.16-2.58-2.58s1.16-2.58,2.58-2.58c1.16,0,2.13,0.77,2.46,1.83h48.29v1.5
				h-48.29C148.99,95.89,148.01,96.67,146.85,96.67z"/>
			<path class="st2" d="M137.09,109.96c1.07,0,1.99,0.65,2.38,1.58h34.22l4.99,4.99h24.43v2h-25.26l-4.99-4.99h-33.39
				c-0.39,0.93-1.31,1.58-2.38,1.58c-1.42,0-2.58-1.16-2.58-2.58S135.67,109.96,137.09,109.96z"/>
			<path class="st2" d="M122.29,100.8c1.09,0,2.02,0.67,2.41,1.62h67.18v2H124.7c-0.39,0.95-1.32,1.62-2.41,1.62
				c-1.45,0-2.62-1.17-2.62-2.62C119.68,101.97,120.84,100.8,122.29,100.8z"/>
			<path class="st2" d="M153.94,123.03c1.09,0,2.03,0.67,2.42,1.62h32.35l4.99,4.99h29.17v2h-30l-4.99-4.99h-31.52
				c-0.39,0.95-1.33,1.62-2.42,1.62c-1.44,0-2.61-1.17-2.61-2.62C151.33,124.2,152.5,123.03,153.94,123.03z"/>
		</g>
		<g>
			<path class="st3" d="M240.82,132.27c-36.84,16.06-55.81-63.22-116.18-54.43c43.25-41.76,86.97,60.64,127.29,45.43
				C248.05,130.05,243.15,131.26,240.82,132.27z"/>
			<path class="st2" d="M245.44,126.93c-36.84,16.06-56.13-62.32-116.5-53.52c65.01-41.32,78.78,63.97,123.11,49.75
				C249.85,124.41,247.76,125.92,245.44,126.93z"/>
			
				<linearGradient id="SVGID_1_" gradientUnits="userSpaceOnUse" x1="208.8462" y1="195.84" x2="295.0662" y2="195.84" gradientTransform="matrix(-1 0 0 -1 439.8824 292)">
				<stop  offset="0.1667" style="stop-color:#92B4D4"/>
				<stop  offset="0.236" style="stop-color:#A5C1DC"/>
				<stop  offset="0.3742" style="stop-color:#C6D7E8"/>
				<stop  offset="0.5172" style="stop-color:#DFE9F2"/>
				<stop  offset="0.6653" style="stop-color:#F1F5F9"/>
				<stop  offset="0.8217" style="stop-color:#FCFDFE"/>
				<stop  offset="1" style="stop-color:#FFFFFF"/>
			</linearGradient>
			<path class="st4" d="M231.04,125.03c-10.39-4.96-19.18-15.38-28.33-26.24c-13.06-15.49-26.56-31.5-45.27-31.5
				c-4.07,0-8.26,0.73-12.62,2.21c24.77,2.55,41.82,19.24,57,34.11C212.24,113.81,221.44,122.81,231.04,125.03L231.04,125.03z"/>
		</g>
		<path class="st2" d="M195.36,61.56c0,17.1,13.86,30.96,30.96,30.96s30.96-13.86,30.96-30.96S243.42,30.6,226.32,30.6
			C209.22,30.6,195.36,44.46,195.36,61.56z"/>
		
			<radialGradient id="SVGID_2_" cx="235.2008" cy="258.8457" r="72.461" gradientTransform="matrix(-1 0 0 -1 439.8824 292)" gradientUnits="userSpaceOnUse">
			<stop  offset="0.1944" style="stop-color:#DAE3EF"/>
			<stop  offset="0.8333" style="stop-color:#92B4D4"/>
		</radialGradient>
		<path class="st5" d="M199.44,61.74c0,15.02,12.17,27.19,27.19,27.19s27.19-12.17,27.19-27.19s-12.17-27.19-27.19-27.19
			C211.62,34.55,199.44,46.73,199.44,61.74z"/>
		<path class="st2" d="M247.17,54.64c-0.11,8.29-9.37,14.9-20.68,14.76c-11.31-0.13-20.39-6.96-20.29-15.26
			c0.11-8.29,9.37-14.9,20.68-14.76C238.2,39.52,247.28,46.35,247.17,54.64z"/>
	</g>
	<g>
		<path class="st6" d="M223.87,218.33c-1.56-2.39-1.14-8.41-1.14-13.08c0-5.33,0.24-13.92,0.24-13.92s5.6,0,8.4,0
			c1.32-2.84,3.84-8.64,3.84-8.64l-12.47,0.06l-0.01-13.98c0,0-9.12,0-13.68,0c0,4.64,0,14.23,0,14.23h-1.85
			c0,0-1.85,5.43-2.95,7.85c-4.88-6.49-12.55-10.04-21.84-9.36c-12.25,0.89-22.03,9.27-23.04,21.6
			c-1.54,18.75,10.72,29.12,28.32,27.84c10.69-0.78,16.95-6.46,20.16-15.6c-3.92,0-7.84,0-11.76,0c-4.47,9.61-24.68,7.63-23.28-6
			c11.84,0,23.68,0,35.52,0c1.01,0.37,0.04-1.24,0.72-1.2c-0.6,18.7,7.43,24.54,23.76,21.6c0-3.28,0-6.56,0-9.84
			C229.02,220,225.56,220.93,223.87,218.33z M172.82,201.17c-0.03-12.95,22.74-13.55,22.32,0
			C187.7,201.17,180.26,201.17,172.82,201.17z M209.06,205.73c0.06,0.43-0.21,0.49-0.24,0.24c-0.57-5.23-1.27-10.39-3.84-13.92
			c-0.26-0.06-0.52-0.63-0.52-0.63l4.62,0.04C209.08,191.46,209.06,200.93,209.06,205.73z"/>
		<path class="st6" d="M344.42,213.41c-1.39-9.16-10.2-10.76-19.92-12.72c-4.59-0.92-11.95-1.83-11.52-6.72
			c0.36-4.09,9.38-5.33,13.92-2.88c2.14,1.15,2.5,3.23,3.6,5.28c4.16,0,8.32,0,12.48,0c-0.53-4.62-2.16-7.96-5.04-10.32
			c-10.66-8.74-39.89-6.23-38.64,11.28c0.58,8.12,9.03,10.3,17.04,12c4.95,1.05,13.89,2.02,14.4,6.72
			c0.99,9.14-20.86,8.36-19.68-1.44c-8.32,0-16.64,0-24.96,0c-1.46,2.33-2.41,4.03-4.56,5.28c-3.77,2.19-8.42,1.78-11.04,0.48
			c-9.57-4.76-8.64-28.48,4.56-29.28c5.63-0.34,10.19,2.6,11.04,8.16c4.4,0,8.8,0,13.2,0c-1.19-11.55-10.15-17.13-21.6-17.76
			c-16.47-0.91-25.88,9.06-27.36,23.28c0-7.36,0-14.72,0-22.08c-2.96,0-8.88,0-8.88,0l-4.71,10.56c0,0-0.18,30.78-0.09,36.48
			c4.56,0,9.12,0,13.68,0c0.16-6.88-0.32-14.4,0.24-20.88c1.13,14.3,12.02,23.32,28.08,22.08c10.16-0.78,16.39-6.12,19.92-13.92
			c2.02,18.88,44.73,19.11,45.84-0.72L344.42,213.41L344.42,213.41z"/>
		<path class="st6" d="M33.47,181.25c0,16.24,0,32.48,0,48.72c4.32,0,8.64,0,12.96,0c0-5.76,0-11.52,0-17.28
			c2.9-2.62,5.48-5.56,8.64-7.92c3.42,8.34,6.61,16.9,10.08,25.2c4.48-0.16,9.6,0.32,13.68-0.24c-5.22-11.1-10-22.64-15.12-33.84
			c1.43-1.85,2.82-3.74,4.8-5.04c3.53,9.4,8.19,20.23,12.48,30.72c4.28,10.46,7.41,21.1,21.12,22.08c2.1,0.15,3.99-0.11,6.24,0
			c0-3.52,0-7.04,0-10.56c-4.95-0.13-10.05,0.09-10.8-3.84c-0.54-2.84,1.14-5.32,2.4-8.16c2.53-5.71,4.03-9.61,6.48-15.12
			c1.17-2.64,3.36-7.44,3.36-7.44v-15.84c0,0-4.16,0-6.24,0c-4.49,10.63-8.62,21.62-13.2,32.16c-4.62-10.82-8.36-22.52-12.72-33.6
			c-5.04,0-10.08,0-15.12,0c-5.5,5.06-10.65,11.75-15.84,16.32c0.13-5.65-0.16-10.88-0.24-16.32
			C42.11,181.25,37.79,181.25,33.47,181.25z"/>
		<path class="st6" d="M146.25,229.75c0,0,8.33-0.02,12.89-0.02c0.27-7.79-0.26-16.28-0.24-23.52c0.02-7.03,0.41-13.15-2.16-17.76
			c-2.71-4.85-9.22-7.76-17.76-6.96c-6.37,0.6-10.52,4.25-13.68,7.68c0-2.16,0-4.32,0-6.48c-2.88,0-8.64,0-8.64,0l-4.32,9.84
			c0,0,0,12.24,0,18.48c0,6.5,0,12.82,0,18.72c4.56,0,12.91-0.1,12.91-0.1l-0.09-18.88c0.3-8.13,1.76-16.23,6.14-18.22
			c5.06-2.3,10.66-0.85,12.72,2.88c1.36,2.46,2,6.8,2.25,11.59L146.25,229.75z"/>
		<g>
			<path class="st0" d="M117.71,243.85c-0.51-0.11-0.92-0.29-1.23-0.53s-0.53-0.54-0.65-0.92c-0.13-0.38-0.19-0.84-0.19-1.38v-0.94
				c0-0.53,0.06-0.99,0.18-1.37s0.33-0.7,0.62-0.94s0.68-0.42,1.17-0.54c0.49-0.12,1.09-0.17,1.82-0.17h1.11
				c0.78,0,1.43,0.05,1.93,0.15s0.9,0.26,1.2,0.5c0.29,0.23,0.5,0.54,0.61,0.92s0.17,0.86,0.17,1.43v1.01h-6.68v0.27
				c0,0.34,0.11,0.6,0.34,0.8c0.23,0.2,0.64,0.29,1.22,0.29h1.46c0.29,0,0.53-0.01,0.72-0.02c0.19-0.01,0.34-0.05,0.46-0.1
				c0.11-0.05,0.19-0.12,0.24-0.21s0.07-0.2,0.07-0.34h2.17v0.14c0,0.27-0.04,0.53-0.13,0.79s-0.27,0.48-0.54,0.68
				c-0.27,0.2-0.65,0.36-1.15,0.48c-0.5,0.12-1.15,0.18-1.96,0.18h-1.02C118.87,244.01,118.23,243.96,117.71,243.85z M119.25,238.68
				c-0.34,0-0.6,0.04-0.8,0.11c-0.2,0.08-0.34,0.17-0.44,0.28s-0.16,0.23-0.18,0.36c-0.02,0.12-0.04,0.24-0.04,0.34h4.48
				c0-0.12-0.01-0.24-0.04-0.37c-0.03-0.12-0.1-0.24-0.2-0.35c-0.11-0.11-0.27-0.2-0.48-0.27c-0.21-0.07-0.49-0.11-0.85-0.11h-1.45
				V238.68z"/>
			<path class="st0" d="M134.18,237.88c0.56,0.53,0.84,1.31,0.84,2.36V244h-2.32v-3.39c0-0.62-0.15-1.09-0.46-1.41
				c-0.31-0.33-0.83-0.49-1.55-0.49h-0.34c-0.66,0-1.16,0.17-1.5,0.5c-0.34,0.34-0.5,0.8-0.5,1.4V244H126v-6.92h2.31v1.01
				c0.07-0.11,0.15-0.23,0.25-0.35s0.24-0.23,0.41-0.33c0.18-0.1,0.4-0.18,0.68-0.24s0.62-0.09,1.04-0.09h0.73
				C132.69,237.08,133.62,237.35,134.18,237.88z"/>
			<path class="st0" d="M139.9,237.08v6.75c0,0.64-0.05,1.17-0.16,1.58c-0.11,0.41-0.3,0.72-0.57,0.95
				c-0.28,0.23-0.65,0.39-1.11,0.48c-0.47,0.09-1.06,0.13-1.78,0.13v-1.95c0.49,0,0.82-0.1,1.01-0.29c0.19-0.2,0.28-0.49,0.28-0.88
				v-6.76L139.9,237.08L139.9,237.08z M139.92,236.15h-2.34v-1.86h2.34V236.15z"/>
			<path class="st0" d="M146.74,237.06c0.73,0,1.34,0.05,1.83,0.17c0.5,0.11,0.9,0.3,1.2,0.55c0.31,0.26,0.53,0.59,0.66,1.01
				c0.13,0.41,0.2,0.92,0.2,1.52v0.57c0,0.58-0.06,1.07-0.17,1.46c-0.12,0.4-0.3,0.72-0.54,0.97c-0.24,0.25-0.55,0.43-0.93,0.54
				c-0.38,0.11-0.83,0.17-1.36,0.17h-2.79c-0.49,0-0.92-0.05-1.29-0.16c-0.38-0.11-0.7-0.29-0.95-0.53
				c-0.26-0.25-0.45-0.57-0.58-0.97c-0.13-0.4-0.2-0.89-0.2-1.47v-0.57c0-0.58,0.06-1.07,0.17-1.48c0.12-0.41,0.32-0.75,0.61-1.01
				c0.29-0.26,0.67-0.45,1.16-0.57c0.48-0.12,1.08-0.18,1.8-0.18h1.18V237.06z M148.57,240.36c0-0.26-0.03-0.49-0.09-0.69
				s-0.17-0.36-0.31-0.48c-0.15-0.13-0.36-0.22-0.62-0.28s-0.59-0.09-0.98-0.09h-0.7c-0.39,0-0.72,0.03-0.98,0.09
				s-0.47,0.15-0.62,0.28c-0.15,0.12-0.25,0.29-0.31,0.48c-0.06,0.2-0.09,0.42-0.09,0.69v0.28c0,0.29,0.03,0.53,0.1,0.73
				s0.17,0.36,0.32,0.49s0.35,0.22,0.59,0.28c0.25,0.06,0.55,0.09,0.9,0.09h0.87c0.35,0,0.66-0.03,0.9-0.09
				c0.25-0.06,0.45-0.15,0.59-0.28c0.15-0.13,0.26-0.29,0.32-0.49c0.07-0.2,0.1-0.45,0.1-0.73v-0.28H148.57z"/>
			<path class="st0" d="M156.28,241.91l2.34-4.83h2.24L157.6,244c-0.23,0.5-0.48,0.94-0.73,1.31s-0.55,0.67-0.9,0.92
				c-0.35,0.24-0.77,0.42-1.27,0.55c-0.49,0.12-1.1,0.18-1.82,0.18v-2.09c0.29,0,0.54-0.01,0.76-0.04c0.22-0.02,0.41-0.07,0.57-0.13
				s0.3-0.15,0.42-0.26c0.12-0.11,0.22-0.26,0.3-0.45l-3.23-6.92h2.24L156.28,241.91z"/>
			<path class="st0" d="M174.76,242.33c0.32,0,0.57-0.04,0.76-0.11c0.19-0.07,0.34-0.16,0.44-0.27s0.17-0.23,0.2-0.37
				c0.03-0.14,0.05-0.28,0.05-0.42h2.39c0,0.36-0.04,0.71-0.13,1.05s-0.27,0.64-0.54,0.9c-0.27,0.27-0.66,0.48-1.17,0.64
				s-1.17,0.24-2,0.24h-0.77c-0.64,0-1.2-0.06-1.65-0.18c-0.46-0.12-0.83-0.31-1.12-0.56s-0.5-0.56-0.63-0.94
				c-0.13-0.37-0.2-0.81-0.2-1.32V239h-0.85v-1.93h0.85v-1.33h2.32v1.33h4.9V239h-4.9v2.1c0,0.42,0.11,0.73,0.33,0.92
				c0.22,0.2,0.58,0.29,1.08,0.29h0.64V242.33z"/>
			<path class="st0" d="M187.95,237.28c0.46,0.13,0.83,0.33,1.11,0.59c0.28,0.27,0.49,0.6,0.61,0.99c0.12,0.4,0.18,0.86,0.18,1.38
				V244h-2.34v-3.6c0-0.3-0.03-0.56-0.09-0.77s-0.17-0.39-0.32-0.53c-0.15-0.14-0.35-0.24-0.6-0.31s-0.57-0.1-0.95-0.1h-1.13
				c-0.59,0-1.04,0.16-1.35,0.49s-0.47,0.8-0.47,1.41v3.4h-2.34v-9.72h2.31v3.79c0.08-0.12,0.16-0.24,0.26-0.36s0.23-0.23,0.39-0.32
				s0.35-0.17,0.57-0.22c0.22-0.06,0.5-0.08,0.83-0.08h1.64C186.93,237.08,187.49,237.15,187.95,237.28z"/>
			<path class="st0" d="M193.54,243.85c-0.51-0.11-0.92-0.29-1.23-0.53s-0.53-0.54-0.65-0.92c-0.13-0.38-0.19-0.84-0.19-1.38v-0.94
				c0-0.53,0.06-0.99,0.18-1.37s0.33-0.7,0.62-0.94s0.68-0.42,1.17-0.54c0.49-0.12,1.09-0.17,1.82-0.17h1.11
				c0.78,0,1.43,0.05,1.93,0.15s0.9,0.26,1.2,0.5c0.29,0.23,0.5,0.54,0.61,0.92s0.17,0.86,0.17,1.43v1.01h-6.68v0.27
				c0,0.34,0.11,0.6,0.34,0.8c0.23,0.2,0.64,0.29,1.22,0.29h1.46c0.29,0,0.53-0.01,0.72-0.02c0.19-0.01,0.34-0.05,0.46-0.1
				c0.11-0.05,0.19-0.12,0.24-0.21s0.07-0.2,0.07-0.34h2.17v0.14c0,0.27-0.04,0.53-0.13,0.79s-0.27,0.48-0.54,0.68
				c-0.27,0.2-0.65,0.36-1.15,0.48c-0.5,0.12-1.15,0.18-1.96,0.18h-1.02C194.69,244.01,194.05,243.96,193.54,243.85z M195.08,238.68
				c-0.34,0-0.6,0.04-0.8,0.11c-0.2,0.08-0.34,0.17-0.44,0.28s-0.16,0.23-0.18,0.36c-0.02,0.12-0.04,0.24-0.04,0.34h4.48
				c0-0.12-0.01-0.24-0.04-0.37c-0.03-0.12-0.1-0.24-0.2-0.35c-0.11-0.11-0.27-0.2-0.48-0.27c-0.21-0.07-0.49-0.11-0.85-0.11h-1.45
				V238.68z"/>
			<path class="st0" d="M214.07,239.56c0.5,0,0.91,0.02,1.21,0.05s0.54,0.08,0.72,0.14c0.18,0.06,0.31,0.14,0.38,0.22
				c0.08,0.09,0.15,0.18,0.2,0.29v-0.53c0-0.23-0.03-0.43-0.08-0.59c-0.06-0.16-0.15-0.29-0.27-0.38c-0.13-0.09-0.3-0.16-0.51-0.2
				c-0.21-0.04-0.48-0.06-0.8-0.06h-1.47c-0.3,0-0.54,0.01-0.74,0.04c-0.19,0.03-0.34,0.06-0.46,0.11
				c-0.11,0.05-0.19,0.11-0.23,0.18c-0.04,0.08-0.06,0.15-0.06,0.24h-2.21c0-0.67,0.23-1.17,0.69-1.5s1.22-0.5,2.28-0.5h2.55
				c0.62,0,1.15,0.07,1.57,0.2s0.76,0.31,1.01,0.54s0.43,0.5,0.54,0.83c0.11,0.32,0.16,0.67,0.16,1.06v4.3h-1.95v-0.78
				c-0.07,0.11-0.13,0.21-0.21,0.31c-0.07,0.09-0.19,0.18-0.36,0.25c-0.16,0.07-0.39,0.12-0.69,0.17c-0.29,0.04-0.69,0.06-1.18,0.06
				h-1.55c-1.01,0-1.75-0.15-2.21-0.46c-0.47-0.3-0.7-0.81-0.7-1.53v-0.39c0-0.34,0.04-0.65,0.13-0.9c0.09-0.26,0.25-0.47,0.47-0.64
				s0.52-0.3,0.9-0.39c0.37-0.08,0.85-0.12,1.43-0.12h1.44V239.56z M212.26,242.33c0.19,0.08,0.46,0.12,0.8,0.12h2.24
				c0.35,0,0.63-0.04,0.84-0.11c0.21-0.07,0.31-0.26,0.31-0.55c0-0.28-0.1-0.46-0.3-0.55c-0.2-0.08-0.48-0.13-0.85-0.13h-2.24
				c-0.33,0-0.59,0.04-0.79,0.11c-0.2,0.07-0.3,0.26-0.3,0.56C211.97,242.07,212.07,242.25,212.26,242.33z"/>
			<path class="st0" d="M226.49,239.51c-0.05-0.14-0.13-0.27-0.24-0.39c-0.11-0.12-0.26-0.22-0.46-0.29
				c-0.19-0.07-0.43-0.11-0.72-0.11h-0.6c-0.56,0-0.99,0.16-1.28,0.47s-0.44,0.71-0.44,1.18V244h-2.37v-6.92h2.37v1.02
				c0.06-0.14,0.15-0.27,0.24-0.39c0.1-0.12,0.22-0.23,0.38-0.32c0.15-0.09,0.34-0.17,0.55-0.22c0.21-0.06,0.47-0.08,0.77-0.08h0.94
				c0.63,0,1.16,0.07,1.58,0.22c0.42,0.14,0.75,0.34,1,0.6c0.25,0.25,0.42,0.55,0.52,0.89c0.1,0.34,0.15,0.71,0.15,1.11h-2.32
				C226.56,239.78,226.54,239.65,226.49,239.51z"/>
			<path class="st0" d="M235.14,242.33c0.32,0,0.57-0.04,0.76-0.11c0.19-0.07,0.34-0.16,0.44-0.27s0.17-0.23,0.2-0.37
				c0.03-0.14,0.05-0.28,0.05-0.42h2.39c0,0.36-0.04,0.71-0.13,1.05s-0.27,0.64-0.54,0.9c-0.27,0.27-0.66,0.48-1.17,0.64
				s-1.17,0.24-2,0.24h-0.77c-0.64,0-1.2-0.06-1.65-0.18c-0.46-0.12-0.83-0.31-1.12-0.56s-0.5-0.56-0.63-0.94
				c-0.13-0.37-0.2-0.81-0.2-1.32V239h-0.85v-1.93h0.85v-1.33h2.32v1.33h4.9V239h-4.9v2.1c0,0.42,0.11,0.73,0.33,0.92
				c0.22,0.2,0.58,0.29,1.08,0.29h0.64V242.33z"/>
			<path class="st0" d="M253.18,237.06c0.73,0,1.34,0.05,1.83,0.17c0.5,0.11,0.9,0.3,1.2,0.55c0.31,0.26,0.53,0.59,0.66,1.01
				c0.13,0.41,0.2,0.92,0.2,1.52v0.57c0,0.58-0.06,1.07-0.17,1.46c-0.12,0.4-0.3,0.72-0.54,0.97c-0.24,0.25-0.55,0.43-0.93,0.54
				c-0.38,0.11-0.83,0.17-1.36,0.17h-2.79c-0.49,0-0.92-0.05-1.29-0.16c-0.38-0.11-0.7-0.29-0.95-0.53
				c-0.26-0.25-0.45-0.57-0.58-0.97c-0.13-0.4-0.2-0.89-0.2-1.47v-0.57c0-0.58,0.06-1.07,0.17-1.48c0.12-0.41,0.32-0.75,0.61-1.01
				c0.29-0.26,0.67-0.45,1.16-0.57c0.48-0.12,1.08-0.18,1.8-0.18h1.18V237.06z M255.01,240.36c0-0.26-0.03-0.49-0.09-0.69
				s-0.17-0.36-0.31-0.48c-0.15-0.13-0.36-0.22-0.62-0.28s-0.59-0.09-0.98-0.09h-0.7c-0.39,0-0.72,0.03-0.98,0.09
				s-0.47,0.15-0.62,0.28c-0.15,0.12-0.25,0.29-0.31,0.48c-0.06,0.2-0.09,0.42-0.09,0.69v0.28c0,0.29,0.03,0.53,0.1,0.73
				s0.17,0.36,0.32,0.49s0.35,0.22,0.59,0.28c0.25,0.06,0.55,0.09,0.9,0.09h0.87c0.35,0,0.66-0.03,0.9-0.09
				c0.25-0.06,0.45-0.15,0.59-0.28c0.15-0.13,0.26-0.29,0.32-0.49c0.07-0.2,0.1-0.45,0.1-0.73v-0.28H255.01z"/>
			<path class="st0" d="M264.52,238.97h-2.97V244h-2.34v-5.03h-0.85v-1.92h0.85v-0.32c0-0.38,0.05-0.73,0.14-1.03
				c0.09-0.3,0.25-0.56,0.46-0.77s0.49-0.37,0.84-0.48c0.35-0.11,0.79-0.17,1.31-0.17h2.34v1.93h-1.83c-0.37,0-0.62,0.05-0.74,0.14
				c-0.12,0.09-0.17,0.28-0.17,0.56v0.14h2.97v1.92H264.52z"/>
			<path class="st0" d="M282.49,242.68c-0.09,0.29-0.27,0.53-0.53,0.72c-0.27,0.2-0.64,0.34-1.13,0.45
				c-0.49,0.1-1.13,0.15-1.93,0.15h-1.05c-0.81,0-1.48-0.05-2-0.16c-0.52-0.11-0.93-0.28-1.23-0.52c-0.3-0.24-0.51-0.54-0.62-0.92
				c-0.12-0.38-0.18-0.84-0.18-1.38v-0.9c0-0.54,0.06-1.01,0.18-1.4c0.12-0.39,0.33-0.71,0.62-0.95c0.29-0.24,0.69-0.42,1.18-0.54
				c0.5-0.12,1.12-0.17,1.86-0.17h1.05c0.78,0,1.43,0.04,1.94,0.13s0.91,0.23,1.2,0.41c0.29,0.19,0.49,0.43,0.6,0.72
				c0.11,0.29,0.17,0.64,0.17,1.04v0.14h-2.21c0-0.13-0.02-0.24-0.07-0.34s-0.14-0.18-0.29-0.25c-0.14-0.07-0.35-0.12-0.61-0.15
				c-0.26-0.03-0.61-0.05-1.04-0.05h-0.53c-0.39,0-0.72,0.03-0.99,0.09s-0.48,0.16-0.64,0.29s-0.27,0.3-0.34,0.5
				c-0.07,0.21-0.1,0.46-0.1,0.76v0.45c0,0.56,0.15,0.96,0.46,1.2c0.31,0.24,0.84,0.36,1.61,0.36h0.56c0.43,0,0.77-0.02,1.03-0.05
				c0.26-0.04,0.46-0.09,0.6-0.16s0.23-0.16,0.27-0.27s0.06-0.24,0.06-0.38h2.21v0.21C282.62,242.07,282.57,242.39,282.49,242.68z"
				/>
			<path class="st0" d="M289.06,237.06c0.73,0,1.34,0.05,1.83,0.17c0.5,0.11,0.9,0.3,1.2,0.55c0.31,0.26,0.53,0.59,0.66,1.01
				c0.13,0.41,0.2,0.92,0.2,1.52v0.57c0,0.58-0.06,1.07-0.17,1.46c-0.12,0.4-0.3,0.72-0.54,0.97c-0.24,0.25-0.55,0.43-0.93,0.54
				c-0.38,0.11-0.83,0.17-1.36,0.17h-2.79c-0.49,0-0.92-0.05-1.3-0.16c-0.38-0.11-0.7-0.29-0.95-0.53
				c-0.26-0.25-0.45-0.57-0.58-0.97c-0.13-0.4-0.2-0.89-0.2-1.47v-0.57c0-0.58,0.06-1.07,0.17-1.48c0.12-0.41,0.32-0.75,0.61-1.01
				c0.29-0.26,0.67-0.45,1.16-0.57c0.48-0.12,1.08-0.18,1.8-0.18h1.19V237.06z M290.89,240.36c0-0.26-0.03-0.49-0.09-0.69
				s-0.17-0.36-0.31-0.48c-0.15-0.13-0.36-0.22-0.62-0.28s-0.59-0.09-0.98-0.09h-0.7c-0.39,0-0.72,0.03-0.98,0.09
				s-0.47,0.15-0.62,0.28c-0.15,0.12-0.25,0.29-0.31,0.48c-0.06,0.2-0.09,0.42-0.09,0.69v0.28c0,0.29,0.03,0.53,0.1,0.73
				s0.17,0.36,0.32,0.49s0.35,0.22,0.59,0.28c0.25,0.06,0.55,0.09,0.9,0.09h0.87c0.35,0,0.66-0.03,0.9-0.09
				c0.25-0.06,0.45-0.15,0.59-0.28c0.15-0.13,0.26-0.29,0.32-0.49s0.1-0.45,0.1-0.73v-0.28H290.89z"/>
			<path class="st0" d="M296.36,243.8c-0.44-0.13-0.8-0.33-1.08-0.59s-0.48-0.58-0.61-0.96s-0.19-0.81-0.19-1.29v-0.8
				c0-1.03,0.29-1.8,0.87-2.32c0.58-0.52,1.5-0.78,2.75-0.78h0.98c0.45,0,0.82,0.03,1.11,0.09s0.54,0.14,0.73,0.24
				c0.19,0.1,0.34,0.21,0.43,0.34c0.1,0.13,0.17,0.25,0.23,0.38v-3.82h2.32V244h-2.32v-0.88c-0.08,0.11-0.17,0.22-0.27,0.33
				c-0.11,0.11-0.26,0.2-0.45,0.29c-0.19,0.08-0.44,0.15-0.75,0.2c-0.31,0.05-0.69,0.07-1.15,0.07h-0.98
				C297.35,244,296.8,243.93,296.36,243.8z M298.73,238.82c-0.66,0-1.14,0.11-1.44,0.34c-0.3,0.22-0.45,0.64-0.45,1.26v0.28
				c0,0.59,0.15,0.99,0.45,1.21s0.78,0.33,1.44,0.33h0.9c0.71,0,1.21-0.14,1.49-0.41c0.28-0.28,0.43-0.67,0.43-1.18v-0.28
				c0-0.24-0.03-0.46-0.1-0.65c-0.07-0.19-0.17-0.35-0.33-0.48c-0.15-0.13-0.36-0.23-0.62-0.3c-0.26-0.07-0.59-0.1-0.98-0.1h-0.79
				V238.82z"/>
			<path class="st0" d="M308.5,236.15h-2.34v-1.86h2.34V236.15z M308.5,244h-2.34v-6.92h2.34V244z"/>
			<path class="st0" d="M318.64,237.88c0.56,0.53,0.84,1.31,0.84,2.36V244h-2.32v-3.39c0-0.62-0.15-1.09-0.46-1.41
				c-0.31-0.33-0.83-0.49-1.55-0.49h-0.34c-0.66,0-1.16,0.17-1.5,0.5c-0.34,0.34-0.5,0.8-0.5,1.4V244h-2.35v-6.92h2.31v1.01
				c0.07-0.11,0.15-0.23,0.25-0.35s0.24-0.23,0.41-0.33c0.18-0.1,0.4-0.18,0.68-0.24c0.28-0.06,0.62-0.09,1.04-0.09h0.73
				C317.16,237.08,318.08,237.35,318.64,237.88z"/>
			<path class="st0" d="M325.79,237.08c0.44,0,0.8,0.03,1.09,0.08c0.29,0.06,0.53,0.13,0.71,0.21s0.32,0.18,0.43,0.28
				c0.1,0.1,0.2,0.21,0.28,0.31v-0.88h2.32v6.41c0,0.64-0.07,1.19-0.2,1.65c-0.14,0.46-0.35,0.83-0.64,1.11
				c-0.29,0.29-0.67,0.49-1.13,0.62s-1.02,0.2-1.67,0.2h-2.1c-1.17,0-2.04-0.22-2.61-0.67c-0.57-0.44-0.86-1.02-0.86-1.74h2.34
				c0,0.1,0.03,0.2,0.08,0.29s0.14,0.17,0.27,0.24c0.13,0.07,0.31,0.13,0.53,0.17c0.22,0.04,0.49,0.06,0.82,0.06h1.09
				c0.32,0,0.59-0.02,0.82-0.07c0.23-0.05,0.41-0.13,0.55-0.25s0.24-0.28,0.31-0.48s0.1-0.44,0.1-0.74v-0.9
				c-0.06,0.14-0.13,0.27-0.22,0.39c-0.09,0.12-0.21,0.23-0.38,0.32c-0.16,0.09-0.38,0.16-0.65,0.22c-0.27,0.05-0.62,0.08-1.04,0.08
				h-1.32c-2.34,0-3.51-1-3.51-3v-0.84c0-1.08,0.29-1.87,0.88-2.35c0.59-0.49,1.44-0.73,2.55-0.73h1.16V237.08z M325.43,238.82
				c-0.66,0-1.14,0.11-1.44,0.34c-0.3,0.22-0.45,0.64-0.45,1.26v0.28c0,0.59,0.15,0.99,0.45,1.21s0.78,0.33,1.44,0.33h0.9
				c0.71,0,1.21-0.14,1.49-0.41c0.28-0.28,0.43-0.67,0.43-1.18v-0.28c0-0.24-0.03-0.46-0.1-0.65c-0.07-0.19-0.17-0.35-0.33-0.48
				c-0.15-0.13-0.36-0.23-0.62-0.3c-0.26-0.07-0.59-0.1-0.98-0.1h-0.79V238.82z"/>
		</g>
	</g>
</g>
</svg>
