<?xml version="1.0" encoding="utf-8"?>
<!-- Generator: Adobe Illustrator 24.0.1, SVG Export Plug-In . SVG Version: 6.00 Build 0)  -->
<svg version="1.1" id="Layer_1" xmlns="http://www.w3.org/2000/svg" xmlns:xlink="http://www.w3.org/1999/xlink" x="0px" y="0px"
	 viewBox="0 0 814 209.5" style="enable-background:new 0 0 814 209.5;" xml:space="preserve">
<style type="text/css">
	.st0{fill:#293133;}
	.st1{fill:#7F8385;}
	.st2{fill:#CC3333;}
	.st3{fill:#E6E7E8;stroke:#000000;stroke-linecap:round;stroke-miterlimit:10;}
	.st4{fill:#FFFFFF;stroke:#808285;stroke-miterlimit:10;}
</style>
<g>
	<g>
		<path class="st0" d="M296.4,34.99h-1.34h-21.67l-41.96,68.77h25.06c0,0,24.82-43.55,28.4-49.82c3.59,6.26,28.56,49.82,28.56,49.82
			h24.88L296.4,34.99z"/>
		<polygon class="st1" points="273.3,79.09 296.65,79.09 284.89,96.04 		"/>
		<path class="st0" d="M388.12,34.99h-38.7h-2.39v68.77h41.08c39.84,0,48.21-18.74,48.21-34.47
			C436.33,53.64,427.97,34.99,388.12,34.99z M370.01,48.5c3.18,0,10.62,0,10.62,0c22.12,0.36,31.84,2.44,31.84,20.79
			c0,18.59-9.22,20.59-31.87,20.97c-0.04,0-7.42,0-10.59,0C370.01,86.2,370.01,52.56,370.01,48.5z"/>
		<path class="st0" d="M467.51,89.73c0-4.36,0-54.74,0-54.74h-2.38h-20.74v68.77h75.55V89.73
			C519.94,89.73,471.85,89.73,467.51,89.73z"/>
		<polygon class="st0" points="550.42,34.99 529.68,34.99 529.68,103.76 552.81,103.76 552.81,34.99 		"/>
		<polygon class="st0" points="679.69,34.99 658.76,34.99 658.76,103.76 682.07,103.76 682.07,34.99 		"/>
		<path class="st0" d="M626.54,35.17c0,0,0,32.67,0,41.59c-6.73-6.98-40.1-41.59-40.1-41.59l-1.01-0.18h-18.54h-2.38v68.77h21.7
			c0,0,0-32.97,0-41.92c6.73,7.01,40.27,41.92,40.27,41.92h21.95V35.17H626.54z"/>
		<path class="st0" d="M710.35,63.63c4.16-2.98,40.01-28.64,40.01-28.64h-7.42H720.7l-37.12,29.63l38.56,39.15h31.9
			C754.05,103.76,714.23,67.2,710.35,63.63z"/>
	</g>
	<g>
		<path class="st2" d="M52.45,176.32c43.19-41.33,95.7-41.33,139,0l-28.61-60.07l-85.94,8.66L52.45,176.32z"/>
		<polygon class="st2" points="81.72,114.83 162.07,114.83 155.94,101.79 83.81,110.55 		"/>
		<polygon class="st2" points="88.74,100.03 155.06,100.03 149.14,87.42 90.82,95.76 		"/>
		<polygon class="st2" points="95.75,85.34 148.15,85.34 121.95,30.42 		"/>
	</g>
	<g>
		<path class="st0" d="M195.43,166.64c0,5.34,4.34,9.69,9.69,9.69c5.33,0,9.68-4.35,9.68-9.69c0-5.34-4.35-9.68-9.68-9.68
			C199.77,156.96,195.43,161.3,195.43,166.64z M196.96,166.64c0-4.49,3.66-8.16,8.17-8.16c4.5,0,8.16,3.67,8.16,8.16
			c0,4.5-3.66,8.17-8.16,8.17C200.61,174.81,196.96,171.14,196.96,166.64z"/>
		<path class="st0" d="M201.21,171.87v-10.15h4.3c1.08,0,1.87,0.09,2.37,0.27c0.49,0.18,0.88,0.51,1.17,0.96
			c0.3,0.47,0.44,1.01,0.44,1.6c0,0.76-0.22,1.39-0.66,1.88c-0.45,0.49-1.12,0.81-2.01,0.94c0.44,0.25,0.82,0.54,1.1,0.86
			c0.29,0.31,0.67,0.86,1.17,1.65l1.24,1.99h-2.45l-1.48-2.21c-0.53-0.79-0.89-1.29-1.08-1.49c-0.19-0.2-0.4-0.35-0.62-0.42
			c-0.22-0.07-0.56-0.12-1.03-0.12h-0.42v4.25H201.21z M203.25,166h1.51c0.99,0,1.61-0.04,1.85-0.12c0.25-0.09,0.43-0.23,0.58-0.43
			c0.14-0.2,0.2-0.45,0.2-0.75c0-0.35-0.09-0.61-0.27-0.83c-0.18-0.2-0.44-0.34-0.77-0.39c-0.16-0.02-0.66-0.04-1.49-0.04h-1.61V166
			z"/>
	</g>
</g>
<g>
	<path class="st1" d="M251.76,174.64v2.48h-16.55v-29.11h2.86v26.63H251.76z"/>
	<path class="st1" d="M254.83,166.24c0-1.9,0.27-3.56,0.82-4.98c0.55-1.41,1.26-2.6,2.14-3.55c0.88-0.95,1.89-1.66,3.02-2.12
		c1.13-0.46,2.3-0.69,3.51-0.69c2.66,0,4.78,0.87,6.36,2.6c1.58,1.74,2.37,4.41,2.37,8.02c0,0.22-0.01,0.45-0.02,0.67
		c-0.01,0.22-0.04,0.43-0.06,0.63h-15.25c0.08,2.66,0.74,4.7,1.97,6.13c1.23,1.43,3.19,2.14,5.88,2.14c1.48,0,2.66-0.14,3.53-0.42
		c0.87-0.28,1.5-0.52,1.89-0.71l0.5,2.35c-0.39,0.22-1.13,0.49-2.21,0.8c-1.08,0.31-2.35,0.46-3.8,0.46c-1.9,0-3.53-0.28-4.87-0.84
		c-1.34-0.56-2.45-1.34-3.32-2.35c-0.87-1.01-1.5-2.21-1.89-3.59C255.03,169.41,254.83,167.89,254.83,166.24z M270.24,164.52
		c-0.06-2.27-0.59-4.03-1.6-5.29c-1.01-1.26-2.44-1.89-4.28-1.89c-0.98,0-1.86,0.2-2.62,0.59c-0.77,0.39-1.44,0.92-2.02,1.57
		c-0.57,0.66-1.02,1.42-1.34,2.29c-0.32,0.87-0.51,1.78-0.57,2.73H270.24z"/>
	<path class="st1" d="M285.74,154.9c1.43,0,2.64,0.2,3.63,0.61c0.99,0.41,1.8,0.97,2.42,1.68c0.62,0.71,1.06,1.56,1.34,2.54
		c0.28,0.98,0.42,2.04,0.42,3.19v13.69c-0.28,0.08-0.69,0.18-1.22,0.27c-0.53,0.1-1.15,0.2-1.85,0.31c-0.7,0.11-1.48,0.2-2.33,0.27
		c-0.85,0.07-1.73,0.1-2.62,0.1c-1.15,0-2.21-0.13-3.17-0.38c-0.97-0.25-1.81-0.65-2.52-1.2c-0.71-0.55-1.27-1.25-1.68-2.1
		c-0.41-0.85-0.61-1.9-0.61-3.13c0-1.18,0.22-2.18,0.67-3.02c0.45-0.84,1.08-1.53,1.89-2.08c0.81-0.55,1.78-0.95,2.9-1.2
		c1.12-0.25,2.34-0.38,3.65-0.38c0.39,0,0.8,0.02,1.24,0.06c0.43,0.04,0.85,0.1,1.26,0.17c0.41,0.07,0.76,0.14,1.05,0.21
		c0.29,0.07,0.5,0.13,0.61,0.19v-1.34c0-0.76-0.06-1.49-0.17-2.21c-0.11-0.71-0.36-1.36-0.74-1.93c-0.38-0.57-0.91-1.04-1.6-1.39
		c-0.69-0.35-1.59-0.53-2.71-0.53c-1.6,0-2.79,0.11-3.57,0.34c-0.78,0.22-1.36,0.41-1.72,0.55l-0.38-2.39
		c0.48-0.22,1.21-0.43,2.21-0.63C283.14,155,284.34,154.9,285.74,154.9z M285.99,175.14c1.06,0,2-0.03,2.79-0.1
		c0.8-0.07,1.48-0.16,2.04-0.27v-7.64c-0.31-0.14-0.8-0.29-1.47-0.44c-0.67-0.15-1.6-0.23-2.77-0.23c-0.67,0-1.37,0.05-2.1,0.15
		c-0.73,0.1-1.4,0.31-2.02,0.63c-0.62,0.32-1.12,0.76-1.51,1.32c-0.39,0.56-0.59,1.3-0.59,2.23c0,0.81,0.13,1.5,0.4,2.06
		c0.27,0.56,0.64,1.01,1.13,1.34c0.49,0.34,1.08,0.58,1.76,0.73C284.35,175.07,285.13,175.14,285.99,175.14z"/>
	<path class="st1" d="M317.79,176.44c-0.81,0.28-1.85,0.55-3.11,0.8c-1.26,0.25-2.86,0.38-4.79,0.38c-1.6,0-3.04-0.26-4.35-0.78
		c-1.3-0.52-2.42-1.27-3.36-2.25c-0.94-0.98-1.67-2.17-2.18-3.57c-0.52-1.4-0.78-2.98-0.78-4.75c0-1.65,0.22-3.17,0.65-4.56
		c0.43-1.39,1.07-2.58,1.91-3.59c0.84-1.01,1.87-1.79,3.09-2.35c1.22-0.56,2.61-0.84,4.18-0.84c1.43,0,2.67,0.2,3.72,0.61
		c1.05,0.41,1.81,0.79,2.29,1.15v-11.68l2.73-0.5V176.44z M315.06,159.35c-0.25-0.2-0.57-0.41-0.94-0.63
		c-0.38-0.22-0.82-0.43-1.32-0.63c-0.5-0.2-1.05-0.36-1.64-0.48c-0.59-0.13-1.2-0.19-1.85-0.19c-1.34,0-2.47,0.24-3.38,0.71
		c-0.91,0.48-1.65,1.11-2.2,1.91c-0.56,0.8-0.97,1.74-1.22,2.81c-0.25,1.08-0.38,2.22-0.38,3.42c0,2.86,0.71,5.05,2.14,6.57
		c1.43,1.53,3.32,2.29,5.67,2.29c1.34,0,2.43-0.06,3.25-0.19c0.83-0.13,1.45-0.26,1.87-0.4V159.35z"/>
	<path class="st1" d="M328.37,148.85c0,0.64-0.2,1.16-0.59,1.53s-0.87,0.57-1.43,0.57c-0.56,0-1.04-0.19-1.43-0.57
		s-0.59-0.89-0.59-1.53c0-0.64,0.2-1.15,0.59-1.53s0.87-0.57,1.43-0.57c0.56,0,1.04,0.19,1.43,0.57S328.37,148.21,328.37,148.85z
		 M327.74,177.12h-2.73V155.4h2.73V177.12z"/>
	<path class="st1" d="M334.97,156.16c0.81-0.22,1.9-0.48,3.28-0.76c1.37-0.28,3.05-0.42,5.04-0.42c1.65,0,3.03,0.24,4.14,0.71
		c1.11,0.48,1.99,1.15,2.65,2.04c0.66,0.88,1.13,1.94,1.41,3.17c0.28,1.23,0.42,2.59,0.42,4.07v12.14h-2.73v-11.26
		c0-1.54-0.1-2.84-0.31-3.91c-0.21-1.06-0.56-1.93-1.05-2.6c-0.49-0.67-1.13-1.15-1.93-1.45c-0.8-0.29-1.8-0.44-3-0.44
		c-1.29,0-2.4,0.07-3.34,0.21c-0.94,0.14-1.55,0.27-1.83,0.38v19.07h-2.73V156.16z"/>
	<path class="st1" d="M373.02,174.6c-0.17,0.14-0.42,0.3-0.76,0.48c-0.34,0.18-0.75,0.37-1.24,0.57c-0.49,0.2-1.05,0.36-1.68,0.48
		c-0.63,0.13-1.34,0.19-2.12,0.19c-1.26,0-2.48-0.2-3.65-0.59c-1.18-0.39-2.21-1.01-3.09-1.85c-0.88-0.84-1.59-1.92-2.12-3.25
		c-0.53-1.33-0.8-2.95-0.8-4.85c0-1.54,0.24-2.97,0.71-4.28c0.48-1.32,1.16-2.46,2.04-3.42c0.88-0.97,1.96-1.72,3.23-2.27
		c1.27-0.55,2.71-0.82,4.31-0.82c2.02,0,3.63,0.13,4.85,0.4c1.22,0.27,2.22,0.52,3,0.78v19.82c0,3.25-0.84,5.56-2.52,6.95
		c-1.68,1.39-4.21,2.08-7.6,2.08c-1.4,0-2.67-0.1-3.8-0.31c-1.13-0.21-2.11-0.46-2.92-0.73l0.55-2.48c0.67,0.31,1.59,0.57,2.75,0.8
		c1.16,0.22,2.33,0.34,3.51,0.34c2.58,0,4.44-0.5,5.61-1.49c1.16-0.99,1.74-2.7,1.74-5.1V174.6z M372.98,158.05
		c-0.48-0.14-1.09-0.27-1.85-0.4s-1.83-0.19-3.23-0.19c-1.18,0-2.22,0.2-3.13,0.61c-0.91,0.41-1.69,0.98-2.33,1.72
		c-0.64,0.74-1.13,1.62-1.47,2.65c-0.34,1.02-0.5,2.15-0.5,3.38c0,1.43,0.2,2.65,0.59,3.67c0.39,1.02,0.9,1.86,1.53,2.5
		c0.63,0.64,1.35,1.11,2.16,1.41c0.81,0.29,1.64,0.44,2.48,0.44c1.23,0,2.36-0.18,3.38-0.55c1.02-0.36,1.81-0.78,2.37-1.26V158.05z"
		/>
	<path class="st1" d="M392.5,177.12v-29.11h18.69v4.49h-13.4v7.18h11.93v4.41H397.8v8.53h14.41v4.49H392.5z"/>
	<path class="st1" d="M441.81,162.54c0,2.52-0.39,4.71-1.18,6.57c-0.78,1.86-1.9,3.42-3.34,4.66c-1.44,1.25-3.18,2.17-5.21,2.77
		c-2.03,0.6-4.28,0.9-6.74,0.9c-1.18,0-2.51-0.05-3.99-0.15c-1.48-0.1-2.9-0.3-4.24-0.61v-28.27c1.34-0.31,2.77-0.5,4.28-0.59
		s2.86-0.13,4.03-0.13c2.44,0,4.66,0.29,6.68,0.86c2.02,0.57,3.74,1.47,5.19,2.69c1.44,1.22,2.55,2.76,3.34,4.62
		C441.42,157.75,441.81,159.97,441.81,162.54z M422.41,172.75c0.31,0.03,0.71,0.05,1.22,0.06c0.5,0.01,1.19,0.02,2.06,0.02
		c3.56,0,6.21-0.9,7.96-2.71c1.75-1.81,2.62-4.33,2.62-7.58c0-3.3-0.85-5.84-2.56-7.6c-1.71-1.76-4.35-2.65-7.94-2.65
		c-1.57,0-2.69,0.04-3.36,0.13V172.75z"/>
	<path class="st1" d="M461.22,152c-3,0-5.29,0.93-6.87,2.79c-1.58,1.86-2.37,4.45-2.37,7.75c0,1.57,0.19,3,0.57,4.31
		c0.38,1.3,0.94,2.42,1.68,3.34c0.74,0.92,1.67,1.65,2.77,2.16c1.11,0.52,2.4,0.78,3.88,0.78c0.92,0,1.72-0.03,2.39-0.1
		c0.67-0.07,1.2-0.16,1.6-0.27v-10.46h5.29v13.99c-0.73,0.28-1.96,0.59-3.7,0.92s-3.74,0.5-6.01,0.5c-2.1,0-4.02-0.34-5.75-1.01
		c-1.74-0.67-3.21-1.65-4.43-2.94c-1.22-1.29-2.16-2.87-2.83-4.75c-0.67-1.88-1.01-4.03-1.01-6.47c0-2.44,0.37-4.59,1.11-6.47
		c0.74-1.88,1.76-3.46,3.04-4.77c1.29-1.3,2.8-2.29,4.54-2.96s3.58-1.01,5.54-1.01c1.34,0,2.54,0.09,3.59,0.27
		c1.05,0.18,1.95,0.39,2.71,0.61c0.76,0.22,1.38,0.46,1.87,0.71s0.83,0.43,1.03,0.55l-1.6,4.33c-0.84-0.5-1.88-0.93-3.13-1.28
		C463.9,152.18,462.59,152,461.22,152z"/>
	<path class="st1" d="M476.29,177.12v-29.11h18.69v4.49h-13.4v7.18h11.93v4.41h-11.93v8.53h14.41v4.49H476.29z"/>
	<path class="st1" d="M523.63,177.75c-2.18,0-4.14-0.34-5.88-1.01c-1.74-0.67-3.21-1.66-4.41-2.96c-1.2-1.3-2.13-2.89-2.77-4.77
		c-0.64-1.88-0.97-4.03-0.97-6.47c0-2.44,0.37-4.59,1.11-6.47c0.74-1.88,1.76-3.46,3.04-4.77c1.29-1.3,2.8-2.29,4.54-2.96
		s3.6-1.01,5.59-1.01c1.2,0,2.3,0.09,3.28,0.27c0.98,0.18,1.83,0.39,2.56,0.61c0.73,0.22,1.33,0.46,1.81,0.71
		c0.48,0.25,0.81,0.43,1.01,0.55l-1.55,4.33c-0.67-0.42-1.63-0.82-2.88-1.2s-2.6-0.57-4.05-0.57c-1.26,0-2.44,0.22-3.53,0.65
		c-1.09,0.43-2.04,1.09-2.84,1.95c-0.8,0.87-1.42,1.96-1.87,3.28c-0.45,1.32-0.67,2.84-0.67,4.58c0,1.54,0.17,2.95,0.52,4.24
		c0.35,1.29,0.89,2.4,1.62,3.34c0.73,0.94,1.65,1.67,2.77,2.18c1.12,0.52,2.46,0.78,4.03,0.78c1.88,0,3.4-0.19,4.58-0.57
		s2.09-0.73,2.73-1.07l1.43,4.33c-0.34,0.22-0.79,0.45-1.37,0.67c-0.57,0.22-1.25,0.44-2.04,0.65s-1.67,0.38-2.65,0.5
		C525.8,177.68,524.75,177.75,523.63,177.75z"/>
	<path class="st1" d="M563.78,162.54c0,2.49-0.37,4.69-1.11,6.59c-0.74,1.9-1.75,3.49-3.02,4.77c-1.27,1.27-2.77,2.23-4.47,2.88
		c-1.71,0.64-3.53,0.97-5.46,0.97c-1.93,0-3.76-0.32-5.48-0.97c-1.72-0.64-3.22-1.6-4.49-2.88c-1.27-1.27-2.29-2.86-3.04-4.77
		c-0.76-1.9-1.13-4.1-1.13-6.59c0-2.49,0.38-4.68,1.13-6.57s1.78-3.48,3.09-4.77c1.3-1.29,2.81-2.25,4.51-2.9
		c1.71-0.64,3.51-0.97,5.42-0.97s3.71,0.32,5.42,0.97c1.71,0.64,3.2,1.61,4.47,2.9c1.27,1.29,2.29,2.88,3.04,4.77
		C563.4,157.86,563.78,160.05,563.78,162.54z M541.06,162.54c0,1.6,0.2,3.05,0.59,4.35c0.39,1.3,0.96,2.41,1.7,3.32
		c0.74,0.91,1.64,1.62,2.71,2.12s2.27,0.76,3.61,0.76c1.32,0,2.51-0.25,3.57-0.76c1.06-0.5,1.97-1.21,2.71-2.12
		c0.74-0.91,1.31-2.02,1.7-3.32c0.39-1.3,0.59-2.75,0.59-4.35c0-1.6-0.2-3.04-0.59-4.35c-0.39-1.3-0.96-2.41-1.7-3.32
		c-0.74-0.91-1.65-1.62-2.71-2.12c-1.06-0.5-2.25-0.76-3.57-0.76c-1.34,0-2.55,0.25-3.61,0.76s-1.97,1.22-2.71,2.14
		c-0.74,0.92-1.31,2.03-1.7,3.32C541.25,159.5,541.06,160.95,541.06,162.54z"/>
	<path class="st1" d="M575.94,148.01c0.62,1.06,1.3,2.37,2.06,3.91c0.76,1.54,1.53,3.16,2.31,4.85c0.78,1.69,1.56,3.42,2.33,5.17
		c0.77,1.75,1.48,3.37,2.12,4.85c0.64-1.48,1.34-3.1,2.1-4.85c0.76-1.75,1.53-3.47,2.31-5.17c0.78-1.69,1.55-3.31,2.31-4.85
		c0.76-1.54,1.44-2.84,2.06-3.91h4.77c0.26,2.13,0.5,4.39,0.73,6.78c0.23,2.39,0.43,4.84,0.62,7.35c0.19,2.51,0.36,5.03,0.51,7.56
		c0.16,2.53,0.29,5.01,0.41,7.41h-5.21c-0.11-3.39-0.25-6.87-0.41-10.46c-0.16-3.58-0.39-7.06-0.71-10.42
		c-0.31,0.64-0.67,1.41-1.09,2.31c-0.42,0.9-0.87,1.87-1.34,2.92c-0.48,1.05-0.96,2.14-1.45,3.25c-0.49,1.12-0.97,2.21-1.43,3.26
		c-0.46,1.05-0.89,2.03-1.28,2.94c-0.39,0.91-0.73,1.69-1.01,2.33h-3.95c-0.28-0.64-0.62-1.43-1.01-2.35
		c-0.39-0.92-0.82-1.91-1.28-2.96c-0.46-1.05-0.94-2.14-1.43-3.26c-0.49-1.12-0.97-2.2-1.45-3.23c-0.48-1.04-0.92-2.01-1.34-2.92
		c-0.42-0.91-0.78-1.67-1.09-2.29c-0.31,3.36-0.55,6.83-0.71,10.42c-0.16,3.58-0.29,7.07-0.41,10.46h-5.21
		c0.11-2.41,0.25-4.9,0.41-7.48c0.16-2.58,0.33-5.13,0.51-7.67c0.18-2.53,0.39-4.99,0.62-7.37c0.23-2.38,0.47-4.58,0.73-6.59H575.94
		z"/>
	<path class="st1" d="M614.93,147.72c4.23,0,7.47,0.77,9.72,2.31c2.25,1.54,3.38,3.95,3.38,7.22c0,1.71-0.3,3.17-0.9,4.39
		c-0.6,1.22-1.48,2.21-2.62,2.98c-1.15,0.77-2.55,1.34-4.2,1.7c-1.65,0.36-3.54,0.55-5.67,0.55h-2.65v10.25h-5.29v-28.69
		c1.23-0.28,2.6-0.47,4.09-0.57C612.29,147.77,613.67,147.72,614.93,147.72z M615.31,152.29c-1.34,0-2.45,0.04-3.32,0.13v9.91h2.56
		c2.55,0,4.51-0.36,5.88-1.07s2.06-2.06,2.06-4.05c0-0.95-0.18-1.75-0.55-2.39c-0.36-0.64-0.87-1.15-1.51-1.51
		c-0.64-0.36-1.41-0.62-2.29-0.78C617.26,152.37,616.32,152.29,615.31,152.29z"/>
	<path class="st1" d="M644.08,177.75c-1.99,0-3.7-0.29-5.12-0.86s-2.61-1.38-3.55-2.42c-0.94-1.04-1.63-2.25-2.08-3.65
		c-0.45-1.4-0.67-2.94-0.67-4.62v-18.19h5.33v17.68c0,1.32,0.15,2.44,0.44,3.38c0.29,0.94,0.71,1.7,1.26,2.29
		c0.55,0.59,1.19,1.02,1.93,1.3c0.74,0.28,1.58,0.42,2.5,0.42s1.76-0.14,2.52-0.42c0.76-0.28,1.41-0.71,1.95-1.3
		s0.97-1.35,1.26-2.29c0.29-0.94,0.44-2.06,0.44-3.38v-17.68h5.33v18.19c0,1.68-0.23,3.22-0.69,4.62c-0.46,1.4-1.16,2.62-2.1,3.65
		c-0.94,1.04-2.14,1.84-3.59,2.42C647.79,177.46,646.07,177.75,644.08,177.75z"/>
	<path class="st1" d="M682.68,148.01v4.58h-8.95v24.53h-5.33v-24.53h-8.95v-4.58H682.68z"/>
	<path class="st1" d="M686.71,148.01H692v29.11h-5.29V148.01z"/>
	<path class="st1" d="M718.59,177.12c-0.95-1.6-2.02-3.31-3.19-5.15c-1.18-1.83-2.39-3.68-3.65-5.54c-1.26-1.86-2.54-3.67-3.84-5.42
		c-1.3-1.75-2.54-3.32-3.72-4.73v20.83h-5.21v-29.11h4.33c1.12,1.18,2.32,2.57,3.61,4.18c1.29,1.61,2.58,3.28,3.88,5.02
		c1.3,1.74,2.56,3.48,3.78,5.23c1.22,1.75,2.3,3.38,3.25,4.89v-19.32h5.25v29.11H718.59z"/>
	<path class="st1" d="M743.66,152c-3,0-5.29,0.93-6.87,2.79c-1.58,1.86-2.37,4.45-2.37,7.75c0,1.57,0.19,3,0.57,4.31
		c0.38,1.3,0.94,2.42,1.68,3.34c0.74,0.92,1.67,1.65,2.77,2.16c1.11,0.52,2.4,0.78,3.88,0.78c0.92,0,1.72-0.03,2.39-0.1
		c0.67-0.07,1.2-0.16,1.6-0.27v-10.46h5.29v13.99c-0.73,0.28-1.96,0.59-3.7,0.92s-3.74,0.5-6.01,0.5c-2.1,0-4.02-0.34-5.75-1.01
		c-1.74-0.67-3.21-1.65-4.43-2.94c-1.22-1.29-2.16-2.87-2.83-4.75c-0.67-1.88-1.01-4.03-1.01-6.47c0-2.44,0.37-4.59,1.11-6.47
		c0.74-1.88,1.76-3.46,3.04-4.77c1.29-1.3,2.8-2.29,4.54-2.96s3.58-1.01,5.54-1.01c1.34,0,2.54,0.09,3.59,0.27
		c1.05,0.18,1.95,0.39,2.71,0.61c0.76,0.22,1.38,0.46,1.87,0.71s0.83,0.43,1.03,0.55l-1.6,4.33c-0.84-0.5-1.88-0.93-3.13-1.28
		C746.34,152.18,745.03,152,743.66,152z"/>
</g>
<path class="st3" d="M299.95,336.53"/>
<line class="st4" x1="231.44" y1="130.53" x2="754.05" y2="130.53"/>
</svg>
