<?xml version="1.0" encoding="utf-8"?>
<!-- Generator: Adobe Illustrator 24.0.1, SVG Export Plug-In . SVG Version: 6.00 Build 0)  -->
<svg version="1.1" id="Layer_1" xmlns="http://www.w3.org/2000/svg" xmlns:xlink="http://www.w3.org/1999/xlink" x="0px" y="0px"
	 viewBox="0 0 650.36 152.18" style="enable-background:new 0 0 650.36 152.18;" xml:space="preserve">
<style type="text/css">
	.st0{fill:#01999A;}
</style>
<g>
	<path class="st0" d="M593.43,126.84c-0.53-0.09-1.06-0.26-1.59-0.27c-8.1-0.12-16.03-1.45-23.88-3.33
		c-0.55-0.13-0.88-0.36-0.88-1.02c0.02-5.97,0.01-11.93,0.02-17.9c0-0.1,0.05-0.21,0.1-0.41c0.31,0.07,0.63,0.11,0.92,0.2
		c6.56,2.18,13.25,3.83,20.12,4.62c5.49,0.63,11.02,0.98,16.46-0.4c1.42-0.36,2.83-0.96,4.11-1.69c4.12-2.34,5.7-9.13,0.32-12.62
		c-2.29-1.49-4.88-2.55-7.4-3.66c-5.91-2.62-11.91-5.04-17.78-7.76c-5.13-2.38-9.68-5.63-13.22-10.13
		c-3.16-4.01-4.93-8.58-5.44-13.68c-0.69-6.83,0.71-13.1,5-18.55c3.92-4.98,9.13-8.15,15.03-10.25c5.38-1.91,10.95-2.8,16.66-2.91
		c0.72-0.01,1.43-0.17,2.14-0.26c0.36,0,0.73,0,1.09,0c0.46,0.08,0.91,0.22,1.38,0.25c1.63,0.1,3.27,0.15,4.9,0.26
		c6.67,0.44,13.24,1.59,19.8,2.87c0.87,0.17,1.17,0.53,1.16,1.45c-0.05,5.31-0.02,10.63-0.02,15.94c0,0.34,0,0.69,0,1.06
		c-0.28-0.02-0.39,0-0.49-0.03c-0.55-0.18-1.1-0.38-1.65-0.56c-8.63-2.97-17.38-5.24-26.64-4.51c-3.43,0.27-6.64,1.2-9.37,3.43
		c-3.17,2.59-3.42,6.51-0.43,9.26c1.29,1.19,2.83,2.18,4.4,2.97c5.23,2.62,10.53,5.12,15.8,7.66c5.73,2.76,11.51,5.45,16.35,9.73
		c4.77,4.23,8.14,9.26,9.07,15.7c0.15,1.03,0.31,2.06,0.46,3.1c0,0.36,0,0.73,0,1.09c-0.17,1.32-0.33,2.65-0.5,3.97
		c-0.89,6.95-4.23,12.52-9.61,16.91c-6.86,5.59-14.93,8.07-23.58,8.96c-1.51,0.15-3.01,0.34-4.51,0.52
		C598.96,126.84,596.19,126.84,593.43,126.84z"/>
	<path class="st0" d="M51.2,26.82c0.42,0.08,0.84,0.23,1.27,0.24c8.42,0.13,16.67,1.54,24.9,3.16c0.58,0.11,1.07,0.26,1.06,1.08
		c-0.04,5.6-0.02,11.2-0.02,16.81c0,0.17-0.06,0.34-0.11,0.63c-1.23-0.43-2.38-0.84-3.54-1.23c-4.96-1.68-10.01-3-15.21-3.67
		c-4.59-0.59-9.19-0.85-13.73,0.38c-2.09,0.57-4.02,1.48-5.67,2.91c-3.04,2.64-3.26,6.45-0.22,9.08c1.7,1.48,3.74,2.63,5.77,3.65
		c7.92,3.99,15.97,7.72,23.82,11.84c5.17,2.71,9.55,6.51,12.69,11.56c2.92,4.7,3.96,9.81,3.49,15.32c-1.01,11.98-8.03,19.3-18.43,24
		c-4.8,2.17-9.91,3.27-15.15,3.75c-1.47,0.13-2.94,0.34-4.41,0.51c-2.77,0-5.53,0-8.3,0c-0.56-0.1-1.13-0.24-1.7-0.28
		c-2.75-0.18-5.54-0.13-8.26-0.54c-5.12-0.78-10.2-1.84-15.3-2.76c-0.85-0.15-1.09-0.56-1.09-1.41c0.03-5.64,0.02-11.28,0.02-16.92
		c0-0.34,0.05-0.68,0.08-1.07c0.35,0.07,0.57,0.11,0.77,0.16c5.23,1.34,10.42,2.89,15.71,3.96c6.24,1.27,12.59,1.77,18.95,0.8
		c2.64-0.4,5.19-1.12,7.3-2.89c3.16-2.65,3.63-7.73,0.74-10.58c-1.39-1.37-3.17-2.46-4.96-3.27c-5.39-2.44-10.87-4.7-16.33-7
		c-4.71-1.98-9.28-4.19-13.31-7.38c-5.77-4.56-9.52-10.33-10.53-17.72c-0.17-1.22-0.33-2.43-0.49-3.65c0-0.36,0-0.73,0-1.09
		c0.1-0.57,0.21-1.13,0.29-1.7c0.2-1.36,0.29-2.75,0.6-4.08c1.82-7.66,6.75-12.87,13.38-16.66c6.61-3.78,13.85-5.26,21.37-5.65
		c1.15-0.06,2.3-0.2,3.45-0.3C50.47,26.82,50.83,26.82,51.2,26.82z"/>
	<path class="st0" d="M295.48,87.94c0.33-0.64,0.54-1,0.7-1.38c7.99-18.88,15.98-37.75,23.94-56.64c0.37-0.88,0.86-1.17,1.79-1.17
		c10.08,0.03,20.16,0.03,30.24,0c1.07,0,1.45,0.26,1.45,1.4c-0.03,31.19-0.03,62.38,0,93.56c0,1.01-0.29,1.29-1.3,1.29
		c-7.93-0.04-15.87-0.04-23.8,0c-1.1,0.01-1.42-0.28-1.41-1.4c0.03-20.16,0.02-40.32,0.02-60.48c0-0.47,0-0.93,0-1.4
		c-0.09-0.03-0.18-0.06-0.27-0.09c-0.17,0.32-0.36,0.63-0.51,0.96c-8.91,20.69-17.81,41.39-26.69,62.1c-0.37,0.86-0.8,1.2-1.76,1.19
		c-4.66-0.05-9.32-0.04-13.97-0.01c-0.82,0.01-1.21-0.28-1.52-1.03c-8.45-20.49-16.93-40.97-25.41-61.46
		c-0.25-0.59-0.52-1.17-0.78-1.76c-0.1,0.01-0.2,0.01-0.3,0.02c-0.05,0.46-0.13,0.92-0.13,1.37c-0.01,12.74-0.01,25.47-0.01,38.21
		c0,7.46-0.02,14.92,0.03,22.38c0.01,1.13-0.34,1.4-1.43,1.39c-5.46-0.05-10.92-0.05-16.38,0c-1.04,0.01-1.28-0.34-1.28-1.31
		c0.02-31.15,0.02-62.3,0.02-93.46c0-1.39,0.08-1.47,1.5-1.47c10.63,0,21.25,0.01,31.88-0.03c1.09,0,1.6,0.37,2,1.36
		c7.54,18.74,15.12,37.47,22.69,56.2C294.97,86.77,295.17,87.22,295.48,87.94z"/>
	<path class="st0" d="M527.58,89.27c0-0.45,0-0.9,0-1.35c0-19.18,0-38.36,0-57.53c0-1.6,0-1.6,1.63-1.61
		c5.35,0,10.7,0.02,16.05-0.02c1.03-0.01,1.38,0.28,1.38,1.35c-0.03,31.19-0.03,62.37,0,93.56c0,1.06-0.31,1.34-1.35,1.34
		c-9.21-0.04-18.41-0.03-27.62,0c-0.83,0-1.3-0.24-1.71-0.99c-8.05-14.66-16.14-29.3-24.21-43.95c-2.9-5.25-5.79-10.51-8.69-15.76
		c-0.19-0.34-0.41-0.65-0.9-0.93c-0.04,0.51-0.12,1.02-0.12,1.53c-0.01,19.4,0,38.79-0.01,58.19c0,2.15,0.11,1.9-1.86,1.9
		c-5.28,0.01-10.55-0.02-15.83,0.02c-0.96,0.01-1.25-0.28-1.25-1.24c0.02-31.22,0.02-62.45,0-93.67c0-0.98,0.27-1.34,1.29-1.34
		c9.53,0.03,19.07,0.03,28.6-0.01c1,0,1.4,0.48,1.81,1.23c6.58,12.07,13.17,24.13,19.75,36.19c3.99,7.31,7.98,14.62,11.98,21.92
		c0.23,0.43,0.51,0.83,0.77,1.24C527.38,89.32,527.48,89.29,527.58,89.27z"/>
	<path class="st0" d="M376.03,76.85c0-15.54,0-31.08,0-46.62c0-1.55,0-1.56,1.57-1.56c22.27,0,44.54,0,66.82,0
		c1.53,0,1.53,0,1.53,1.57c0,4.88-0.03,9.75,0.02,14.63c0.01,1.06-0.31,1.36-1.36,1.35c-13.1-0.03-26.2-0.02-39.3-0.02
		c-1.73,0-1.73,0-1.73,1.75c0,6.19,0,12.37,0,18.56c0,1.45,0.01,1.45,1.43,1.45c11.35,0,22.71,0,34.06,0c1.44,0,1.45,0,1.45,1.44
		c0,4.33-0.03,8.66,0.02,12.99c0.01,1.05-0.3,1.36-1.36,1.35c-11.28-0.03-22.56-0.02-33.84-0.02c-1.76,0-1.76,0-1.76,1.81
		c0,6.51,0,13.03,0,19.54c0,1.52,0,1.52,1.5,1.52c13.43,0,26.86,0,40.29,0c1.45,0,1.45,0,1.45,1.42c0,5.24-0.02,10.48,0.02,15.72
		c0.01,0.93-0.22,1.26-1.21,1.26c-22.78-0.03-45.56-0.03-68.35,0c-1.07,0-1.26-0.38-1.26-1.33
		C376.04,108.07,376.03,92.46,376.03,76.85z"/>
	<path class="st0" d="M149.78,76.94c0-15.61,0-31.22,0-46.84c0-1.43,0-1.43,1.45-1.43c22.34,0,44.69,0,67.03,0
		c1.42,0,1.43,0,1.43,1.45c0,4.88,0,9.75,0,14.63c0,1.45,0,1.45-1.43,1.45c-13.14,0-26.28,0-39.41,0c-1.75,0-1.75,0-1.75,1.72
		c0,6.26,0.02,12.52-0.02,18.78c-0.01,1,0.28,1.29,1.29,1.29c11.43-0.03,22.85,0,34.28-0.05c1.12,0,1.41,0.32,1.4,1.42
		c-0.06,4.37-0.05,8.73,0,13.1c0.01,1.01-0.3,1.29-1.3,1.29c-11.35-0.03-22.71-0.02-34.06-0.02c-1.58,0-1.58,0-1.58,1.54
		c0,6.55,0,13.1,0,19.65c0,1.69,0,1.69,1.65,1.69c13.47,0,26.93,0,40.4,0c1.42,0,1.42,0,1.42,1.45c0,5.24-0.02,10.48,0.02,15.72
		c0.01,0.97-0.29,1.23-1.24,1.23c-22.78-0.02-45.56-0.03-68.34,0.01c-1.09,0-1.23-0.42-1.23-1.35
		C149.79,108.09,149.78,92.52,149.78,76.94z"/>
	<path class="st0" d="M127.32,76.83c0,15.57,0,31.15,0,46.72c0,1.45,0,1.45-1.42,1.45c-8.55,0-17.1-0.02-25.65,0.02
		c-1.03,0-1.36-0.26-1.36-1.33c0.03-31.22,0.03-62.44,0-93.66c0-1.03,0.26-1.37,1.33-1.37c8.59,0.04,17.17,0.04,25.76,0
		c1.04,0,1.36,0.28,1.36,1.34C127.31,45.61,127.32,61.22,127.32,76.83z"/>
</g>
</svg>
