<?xml version="1.0" encoding="utf-8"?>
<!-- Generator: Adobe Illustrator 24.0.1, SVG Export Plug-In . SVG Version: 6.00 Build 0)  -->
<svg version="1.1" xmlns="http://www.w3.org/2000/svg" xmlns:xlink="http://www.w3.org/1999/xlink" x="0px" y="0px"
	 viewBox="0 0 200 200" style="enable-background:new 0 0 200 200;" xml:space="preserve">
<style type="text/css">
	.st0{display:none;}
	.st1{fill:#396894;}
	.st2{fill:#FFFFFF;}
</style>
<g id="Grid" class="st0">
</g>
<g id="Layer_1">
</g>
<g id="Desktop">
</g>
<g id="Guides">
</g>
<g id="Page_1">
</g>
<g id="Layer_1_1_">
	<circle class="st1" cx="100" cy="100" r="91.31"/>
	<g>
		<path class="st2" d="M64.02,77.25l-12.82-7.4l1.71-2.98l12.82,7.4L64.02,77.25L64.02,77.25z M155.36,97.77h-14.8v-3.45h14.8V97.77
			L155.36,97.77z M59.44,97.77h-14.8v-3.45h14.8V97.77L59.44,97.77z M148.81,69.85l-12.82,7.4l-1.72-2.98l12.82-7.4L148.81,69.85
			L148.81,69.85z M129.17,48.95l-7.4,12.82l-2.98-1.71l7.4-12.82L129.17,48.95L129.17,48.95z M101.73,40.69v14.8h-3.45v-14.8H101.73
			L101.73,40.69z M78.23,61.78l-7.4-12.82l2.98-1.71l7.4,12.82L78.23,61.78L78.23,61.78z M65.73,117.82l-12.82,7.4l-1.71-2.98
			l12.82-7.4L65.73,117.82L65.73,117.82z M147.09,125.22l-12.82-7.4l1.72-2.98l12.82,7.4L147.09,125.22L147.09,125.22z"/>
		<g>
			<path class="st2" d="M102.31,154.08c1.37,0,2.48,1.11,2.48,2.48c0,3.68-9.58,3.68-9.58,0c0-1.37,1.11-2.48,2.48-2.48H102.31
				L102.31,154.08z"/>
			<path class="st2" d="M100,139.38H86.87h-0.75l-0.56-0.51c-3.54-3.18-3.69-6.15-3.91-10.21c-0.1-1.88-0.21-4.03-0.77-6.53
				c-0.93-4.18-2.89-7.53-4.81-10.81c-0.6-1.03-1.2-2.05-1.67-2.9c-3.59-6.52-4.64-13.75-2.95-20.38
				c1.59-6.27,5.62-11.99,12.24-16.07c2.38-1.47,5-2.63,7.79-3.41c2.69-0.76,5.55-1.18,8.53-1.2h0.02c2.98,0.02,5.84,0.45,8.53,1.2
				c2.79,0.79,5.41,1.95,7.79,3.41c6.62,4.07,10.64,9.79,12.24,16.07l0,0c1.69,6.63,0.63,13.86-2.95,20.38
				c-0.47,0.84-1.06,1.87-1.67,2.89c-1.93,3.29-3.89,6.63-4.81,10.82c-0.55,2.5-0.67,4.65-0.77,6.53
				c-0.22,4.06-0.38,7.03-3.91,10.21l-0.56,0.51h-0.75H100L100,139.38z"/>
			<path class="st1" d="M87.66,135.43H100h12.34c1.83-1.96,1.95-4.12,2.1-6.97c0.11-2.02,0.23-4.33,0.86-7.18
				c1.06-4.79,3.18-8.4,5.26-11.95c0.51-0.87,1.01-1.73,1.6-2.8c3.1-5.64,4.02-11.85,2.58-17.51v-0.01
				c-1.35-5.32-4.8-10.19-10.48-13.69c-2.06-1.27-4.34-2.28-6.79-2.97c-2.37-0.67-4.88-1.04-7.47-1.06
				c-2.59,0.02-5.1,0.39-7.47,1.06c-2.45,0.69-4.73,1.7-6.79,2.97c-5.68,3.5-9.13,8.37-10.48,13.69
				c-1.44,5.66-0.52,11.87,2.58,17.51c0.59,1.07,1.09,1.93,1.6,2.8c2.08,3.55,4.2,7.16,5.26,11.95c0.63,2.84,0.75,5.16,0.86,7.18
				C85.72,131.32,85.84,133.48,87.66,135.43L87.66,135.43z"/>
			<path class="st2" d="M96.92,133.64c-1.8-16.49-0.62-19.4-8.21-34.76l11.29,3.08c3.77-1.08,7.51-2.1,11.3-3.08
				c-7.58,15.29-6.43,18.28-8.22,34.75C99.34,133.25,100.65,133.25,96.92,133.64L96.92,133.64z M99.47,127.36
				c0.16,1.78,0.32,3.56,0.53,5.53c1.19-11.15,0.97-18.69,5.56-29.29c-7.53,2.05-3.6,2.04-11.12,0
				C98.16,112.22,98.63,118.12,99.47,127.36L99.47,127.36z"/>
			<path class="st2" d="M89.41,135.85c1.54-0.97,3.24-1.74,5.05-2.27c1.75-0.51,3.61-0.79,5.53-0.8h0.02
				c1.92,0.01,3.78,0.3,5.53,0.8c1.81,0.53,3.51,1.3,5.05,2.27l-1.31,2.08H90.72L89.41,135.85L89.41,135.85z"/>
			<path class="st2" d="M113.79,139.21v10.82c0,1.7-0.57,3.28-1.49,4.44c-1.04,1.31-2.51,2.13-4.16,2.13H91.87
				c-1.65,0-3.12-0.81-4.16-2.13c-0.92-1.17-1.49-2.74-1.49-4.44v-10.82H113.79L113.79,139.21z"/>
			<path class="st1" d="M90.65,140.59v9.44c0,0.69,0.2,1.3,0.52,1.71c0.21,0.26,0.46,0.43,0.7,0.43h16.27c0.24,0,0.49-0.16,0.7-0.43
				c0.32-0.41,0.52-1.01,0.52-1.71v-9.44H90.65L90.65,140.59z"/>
			<path class="st2" d="M86.21,141.07c-1.22,0-2.22-0.99-2.22-2.22c0-1.22,0.99-2.22,2.22-2.22h27.58c1.22,0,2.22,0.99,2.22,2.22
				c0,1.22-0.99,2.22-2.22,2.22H86.21L86.21,141.07z"/>
		</g>
	</g>
</g>
</svg>
