<?xml version="1.0" encoding="utf-8"?>
<!-- Generator: Adobe Illustrator 24.0.1, SVG Export Plug-In . SVG Version: 6.00 Build 0)  -->
<svg version="1.1" id="Layer_1" xmlns="http://www.w3.org/2000/svg" xmlns:xlink="http://www.w3.org/1999/xlink" x="0px" y="0px"
	 viewBox="0 0 300 50.31" style="enable-background:new 0 0 300 50.31;" xml:space="preserve">
<style type="text/css">
	.st0{fill:#5997BD;stroke:#5997BD;}
	.st1{fill:#213970;}
	.st2{fill:#396894;}
</style>
<g>
	<g>
		<path class="st0" d="M152.45,38.63h-3.62V11.68h4.01l14.33,21.37V11.68h3.62v26.96h-3.97l-14.37-21.38V38.63z"/>
		<path class="st0" d="M180.41,38.63h-3.89l10.21-26.96h3.85l10.21,26.96h-3.89l-2.54-6.97h-11.4L180.41,38.63z M193.35,28.62
			l-4.7-13.29l-4.7,13.29H193.35z"/>
		<path class="st0" d="M201.17,14.72v-3.04h21.14v3.04h-8.74v23.92h-3.62V14.72H201.17z"/>
		<path class="st0" d="M232.32,11.68v26.96h-3.62V11.68H232.32z"/>
		<path class="st0" d="M257.28,11.68h3.97l-9.44,26.96h-4.31l-9.44-26.96h3.97l7.63,23.22L257.28,11.68z"/>
		<path class="st0" d="M284.73,23.19v3.04H270.6v9.36h16.02v3.04h-19.64V11.68h19.22v3.04h-15.6v8.47H284.73z"/>
	</g>
	<g>
		<rect x="133.24" y="8.3" class="st1" width="1.5" height="33.71"/>
	</g>
	<g>
		<g>
			<path class="st2" d="M32.3,21.46v4.81H19.54v5.86h14.85v5.07H13.38V11.09h20.63v5.07H19.54v5.3H32.3z"/>
		</g>
		<g>
			<path class="st2" d="M93.28,23.03v14.18h-4.59v-2.8h-0.07c-1.75,2.69-4.29,3.54-7.91,3.54c-11.3,0-12.87-8.92-12.87-13.88
				c0-5.3,2.09-13.73,13.77-13.73c7.57,0,10.75,4.78,11.45,9.22H86.6c-0.11-1.04-0.71-4.14-5.04-4.14c-7.16,0-7.09,7.35-7.09,8.84
				c0,1.57,0.15,8.62,6.9,8.62c2.69,0,5.71-1.53,6.01-5.11h-5.22v-4.74H93.28z"/>
		</g>
		<g>
			<path class="st2" d="M117.42,21.46v4.81h-12.76v5.86h14.85v5.07H98.51V11.09h20.63v5.07h-14.48v5.3H117.42z"/>
		</g>
		<path class="st2" d="M60.04,18.81c-1.35,0-2.58,0.5-3.52,1.33l-7.74-4.48c0-0.07,0.01-0.13,0.01-0.2c0-2.96-2.4-5.36-5.36-5.36
			s-5.36,2.4-5.36,5.36c0,2.08,1.19,3.88,2.91,4.77v9.86c-1.73,0.89-2.91,2.69-2.91,4.77c0,2.96,2.4,5.36,5.36,5.36
			s5.36-2.4,5.36-5.36c0-0.41-0.05-0.8-0.13-1.18l7.95-5.4c0.93,0.78,2.13,1.26,3.44,1.26c2.96,0,5.36-2.4,5.36-5.36
			S63,18.81,60.04,18.81z M43.9,29.51V20.8c1.63-0.14,3.06-1.02,3.94-2.3l7.08,4.09c-0.15,0.5-0.24,1.03-0.24,1.58
			c0,0.59,0.1,1.16,0.28,1.69l-7.71,5.24C46.38,30.21,45.21,29.63,43.9,29.51z"/>
	</g>
</g>
</svg>
