<?xml version="1.0" encoding="utf-8"?>
<!-- Generator: Adobe Illustrator 24.0.1, SVG Export Plug-In . SVG Version: 6.00 Build 0)  -->
<svg version="1.1" id="Layer_1" xmlns="http://www.w3.org/2000/svg" xmlns:xlink="http://www.w3.org/1999/xlink" x="0px" y="0px"
	 viewBox="0 0 217 118" style="enable-background:new 0 0 217 118;" xml:space="preserve">
<style type="text/css">
	.st0{fill:#FFFFFF;}
</style>
<g>
	<g>
		<path class="st0" d="M45.9,30.5v8.8H22.5V50h27.2v9.3H11.3V11.5h37.8v9.3H22.5v9.7H45.9z"/>
	</g>
	<g>
		<path class="st0" d="M157.7,33.4v26h-8.4v-5.1h-0.1c-3.2,4.9-7.9,6.5-14.5,6.5c-20.7,0-23.6-16.3-23.6-25.4
			c0-9.7,3.8-25.2,25.2-25.2c13.9,0,19.7,8.7,21,16.9h-11.8c-0.2-1.9-1.3-7.6-9.2-7.6c-13.1,0-13,13.5-13,16.2
			c0,2.9,0.3,15.8,12.7,15.8c4.9,0,10.5-2.8,11-9.4h-9.6v-8.7C137.3,33.4,157.7,33.4,157.7,33.4z"/>
	</g>
	<g>
		<path class="st0" d="M201.9,30.5v8.8h-23.4V50h27.2v9.3h-38.5V11.5h37.8v9.3h-26.5v9.7H201.9z"/>
	</g>
	<g>
		<path class="st0" d="M16.3,95.7v12.7h-4.8V88.1h4.8l8,12.6h0.1V88.1h4.8v20.2h-4.9L16.3,95.7L16.3,95.7L16.3,95.7z"/>
		<path class="st0" d="M62.1,88.1l7.6,20.2h-5.1l-1.3-3.8H56l-1.3,3.8h-5l7.6-20.2H62.1z M62.3,101.1l-2.6-7.7l-2.7,7.7H62.3z"/>
		<path class="st0" d="M86.7,92v-3.9h17V92h-6.1v16.3h-4.8V92H86.7z"/>
		<path class="st0" d="M129.6,88.1v20.2h-4.8V88.1H129.6z"/>
		<path class="st0" d="M163.6,88.1h5.3l-6.9,20.2H157l-6.9-20.2h5.5l4.1,14.4L163.6,88.1z"/>
		<path class="st0" d="M204,96.1v3.7h-9.9v4.5h11.5v3.9h-16.3V88.1h16V92h-11.2v4.1H204z"/>
	</g>
	<g>
		<rect x="11.3" y="74.7" class="st0" width="194.5" height="1.8"/>
	</g>
	<path class="st0" d="M96.8,25.6c-2.5,0-4.7,0.9-6.5,2.4l-14.2-8.2c0-0.1,0-0.2,0-0.4c0-5.4-4.4-9.8-9.8-9.8s-9.8,4.4-9.8,9.8
		c0,3.8,2.2,7.1,5.3,8.7v18.1c-3.2,1.6-5.3,4.9-5.3,8.7c0,5.4,4.4,9.8,9.8,9.8s9.8-4.4,9.8-9.8c0-0.7-0.1-1.5-0.2-2.2l14.6-9.9
		c1.7,1.4,3.9,2.3,6.3,2.3c5.4,0,9.8-4.4,9.8-9.8S102.2,25.6,96.8,25.6z M67.2,45.2v-16c3-0.3,5.6-1.9,7.2-4.2l13,7.5
		c-0.3,0.9-0.4,1.9-0.4,2.9c0,1.1,0.2,2.1,0.5,3.1l-14.1,9.6C71.7,46.5,69.6,45.4,67.2,45.2z"/>
</g>
</svg>
