<?xml version="1.0" encoding="utf-8"?>
<!-- Generator: Adobe Illustrator 24.0.1, SVG Export Plug-In . SVG Version: 6.00 Build 0)  -->
<svg version="1.1" id="Layer_1" xmlns="http://www.w3.org/2000/svg" xmlns:xlink="http://www.w3.org/1999/xlink" x="0px" y="0px"
	 viewBox="0 0 300 50.31" style="enable-background:new 0 0 300 50.31;" xml:space="preserve">
<style type="text/css">
	.st0{fill:#FFFFFF;}
</style>
<g>
	<g>
		<polygon class="st0" points="166.86,32.77 153.3,12.54 148.53,12.54 148.53,40.49 153.15,40.49 153.15,20.26 166.75,40.49 
			171.48,40.49 171.48,12.54 166.86,12.54 		"/>
		<path class="st0" d="M186.58,12.54L176,40.49h4.96l2.54-6.97h10.7l2.54,6.97h4.96l-10.58-27.96L186.58,12.54L186.58,12.54z
			 M192.84,29.48h-7.98l3.99-11.29L192.84,29.48z"/>
		<polygon class="st0" points="200.87,16.58 209.65,16.58 209.65,40.49 214.27,40.49 214.27,16.58 223.01,16.58 223.01,12.54 
			200.87,12.54 		"/>
		<rect x="228.4" y="12.54" class="st0" width="4.62" height="27.96"/>
		<polygon class="st0" points="249.85,34.66 242.59,12.54 237.55,12.54 247.34,40.49 252.36,40.49 262.15,12.54 257.11,12.54 		"/>
		<polygon class="st0" points="271.3,36.45 271.3,28.09 285.43,28.09 285.43,24.05 271.3,24.05 271.3,16.58 286.9,16.58 
			286.9,12.54 266.68,12.54 266.68,40.49 287.32,40.49 287.32,36.45 		"/>
	</g>
	<g>
		<rect x="133.44" y="9.66" class="st0" width="1.5" height="33.71"/>
	</g>
	<g>
		<g>
			<path class="st0" d="M32.5,22.82v4.81H19.74v5.86h14.85v5.07H13.58V12.45h20.63v5.07H19.74v5.3H32.5z"/>
		</g>
		<g>
			<path class="st0" d="M93.48,24.39v14.18h-4.59v-2.8h-0.07c-1.75,2.69-4.29,3.54-7.91,3.54c-11.3,0-12.87-8.92-12.87-13.88
				c0-5.3,2.09-13.73,13.77-13.73c7.57,0,10.75,4.78,11.45,9.22h-6.45c-0.11-1.04-0.71-4.14-5.04-4.14c-7.16,0-7.09,7.35-7.09,8.84
				c0,1.57,0.15,8.62,6.9,8.62c2.69,0,5.71-1.53,6.01-5.11h-5.22v-4.74C82.37,24.39,93.48,24.39,93.48,24.39z"/>
		</g>
		<g>
			<path class="st0" d="M117.62,22.82v4.81h-12.76v5.86h14.85v5.07h-21V12.45h20.63v5.07h-14.48v5.3H117.62z"/>
		</g>
		<path class="st0" d="M60.24,20.17c-1.35,0-2.58,0.5-3.52,1.33l-7.74-4.48c0-0.07,0.01-0.13,0.01-0.2c0-2.96-2.4-5.36-5.36-5.36
			s-5.36,2.4-5.36,5.36c0,2.08,1.19,3.88,2.91,4.77v9.86c-1.73,0.89-2.91,2.69-2.91,4.77c0,2.96,2.4,5.36,5.36,5.36
			s5.36-2.4,5.36-5.36c0-0.41-0.05-0.8-0.13-1.18l7.95-5.4c0.93,0.78,2.13,1.26,3.44,1.26c2.96,0,5.36-2.4,5.36-5.36
			S63.2,20.17,60.24,20.17z M44.1,30.87v-8.72c1.63-0.14,3.06-1.02,3.94-2.3l7.08,4.09c-0.15,0.5-0.24,1.03-0.24,1.58
			c0,0.59,0.1,1.16,0.28,1.69l-7.71,5.24C46.58,31.57,45.41,30.99,44.1,30.87z"/>
	</g>
</g>
</svg>
